<mxfile host="app.diagrams.net" modified="2023-09-09T07:34:04.128Z" agent="Mozilla/5.0 (Windows NT 10.0; Win64; x64) AppleWebKit/537.36 (KHTML, like Gecko) Chrome/116.0.0.0 Safari/537.36" etag="9CB-k2V4HPbCquP70k_O" version="21.7.2" type="device">
  <diagram name="Page-1" id="gbp8BnoYTopGR79soo97">
    <mxGraphModel dx="1938" dy="1024" grid="0" gridSize="10" guides="1" tooltips="1" connect="1" arrows="1" fold="1" page="0" pageScale="1" pageWidth="850" pageHeight="1100" math="0" shadow="0">
      <root>
        <mxCell id="0" />
        <mxCell id="1" parent="0" />
        <mxCell id="Ndzt5HTPb4c412SwF74z-1" style="edgeStyle=orthogonalEdgeStyle;rounded=0;orthogonalLoop=1;jettySize=auto;html=1;entryX=0;entryY=0.5;entryDx=0;entryDy=0;" parent="1" source="Ndzt5HTPb4c412SwF74z-5" target="Ndzt5HTPb4c412SwF74z-9" edge="1">
          <mxGeometry relative="1" as="geometry" />
        </mxCell>
        <mxCell id="Ndzt5HTPb4c412SwF74z-2" style="edgeStyle=orthogonalEdgeStyle;rounded=0;orthogonalLoop=1;jettySize=auto;html=1;entryX=0;entryY=0.5;entryDx=0;entryDy=0;" parent="1" source="Ndzt5HTPb4c412SwF74z-5" target="Ndzt5HTPb4c412SwF74z-11" edge="1">
          <mxGeometry relative="1" as="geometry" />
        </mxCell>
        <mxCell id="Ndzt5HTPb4c412SwF74z-3" style="edgeStyle=orthogonalEdgeStyle;rounded=0;orthogonalLoop=1;jettySize=auto;html=1;" parent="1" source="Ndzt5HTPb4c412SwF74z-5" target="Ndzt5HTPb4c412SwF74z-13" edge="1">
          <mxGeometry relative="1" as="geometry">
            <Array as="points">
              <mxPoint x="21" y="202" />
              <mxPoint x="-364" y="202" />
            </Array>
          </mxGeometry>
        </mxCell>
        <mxCell id="Ndzt5HTPb4c412SwF74z-4" style="edgeStyle=orthogonalEdgeStyle;rounded=0;orthogonalLoop=1;jettySize=auto;html=1;" parent="1" source="Ndzt5HTPb4c412SwF74z-5" target="Ndzt5HTPb4c412SwF74z-24" edge="1">
          <mxGeometry relative="1" as="geometry" />
        </mxCell>
        <mxCell id="onO6WxirUHfRUyPi9q4v-3" style="edgeStyle=orthogonalEdgeStyle;rounded=0;orthogonalLoop=1;jettySize=auto;html=1;entryX=0;entryY=0.5;entryDx=0;entryDy=0;" edge="1" parent="1" source="Ndzt5HTPb4c412SwF74z-5" target="onO6WxirUHfRUyPi9q4v-1">
          <mxGeometry relative="1" as="geometry" />
        </mxCell>
        <mxCell id="Ndzt5HTPb4c412SwF74z-5" value="&lt;p style=&quot;line-height: 142%;&quot;&gt;&lt;b&gt;&lt;font data-font-src=&quot;https://fonts.googleapis.com/css?family=Roboto&quot; face=&quot;Roboto&quot; style=&quot;font-size: 15px;&quot;&gt;Hashing&lt;/font&gt;&lt;/b&gt;&lt;/p&gt;" style="rounded=1;whiteSpace=wrap;html=1;fillColor=#dae8fc;strokeColor=none;shadow=1;treeFolding=1;movable=1;resizable=1;rotatable=1;deletable=1;editable=1;locked=0;connectable=1;" parent="1" vertex="1">
          <mxGeometry x="-44" y="53" width="129" height="94" as="geometry" />
        </mxCell>
        <mxCell id="Ndzt5HTPb4c412SwF74z-6" style="edgeStyle=orthogonalEdgeStyle;rounded=0;orthogonalLoop=1;jettySize=auto;html=1;" parent="1" source="Ndzt5HTPb4c412SwF74z-7" target="Ndzt5HTPb4c412SwF74z-5" edge="1">
          <mxGeometry relative="1" as="geometry" />
        </mxCell>
        <UserObject label="&lt;p style=&quot;line-height: 260%;&quot;&gt;&lt;b&gt;&lt;font data-font-src=&quot;https://fonts.googleapis.com/css?family=Roboto&quot; face=&quot;Roboto&quot; style=&quot;font-size: 18px;&quot;&gt;DATA STRUCTURE AND ALGORITHM&lt;/font&gt;&lt;/b&gt;&lt;/p&gt;" id="Ndzt5HTPb4c412SwF74z-7">
          <mxCell style="rounded=1;whiteSpace=wrap;html=1;fillColor=#d5e8d4;strokeColor=none;shadow=1;treeFolding=1;editable=1;movable=1;resizable=1;rotatable=1;deletable=1;locked=0;connectable=1;" parent="1" vertex="1">
            <mxGeometry x="-267" y="53" width="197" height="94" as="geometry" />
          </mxCell>
        </UserObject>
        <mxCell id="Ndzt5HTPb4c412SwF74z-8" style="edgeStyle=orthogonalEdgeStyle;rounded=0;orthogonalLoop=1;jettySize=auto;html=1;entryX=0;entryY=0.5;entryDx=0;entryDy=0;" parent="1" source="Ndzt5HTPb4c412SwF74z-9" target="Ndzt5HTPb4c412SwF74z-19" edge="1">
          <mxGeometry relative="1" as="geometry" />
        </mxCell>
        <mxCell id="Ndzt5HTPb4c412SwF74z-9" value="Hash Map" style="swimlane;whiteSpace=wrap;html=1;fillColor=#b1ddf0;strokeColor=default;swimlaneFillColor=#FFFFFF;gradientColor=none;" parent="1" vertex="1">
          <mxGeometry x="215" y="-229" width="434" height="323" as="geometry" />
        </mxCell>
        <mxCell id="Ndzt5HTPb4c412SwF74z-10" value="Key value pair combination&lt;br&gt;&lt;br&gt;Written as Hashmap&amp;lt;String, Object&amp;gt;&lt;br&gt;&lt;br&gt;&lt;b&gt;Observation:&lt;/b&gt;&lt;br&gt;&lt;ol&gt;&lt;li&gt;Value can be anything&lt;/li&gt;&lt;li&gt;Key should be Primitive data type&#39;s Object or String&lt;/li&gt;&lt;ol&gt;&lt;li&gt;Like Long, Float, Int, Double, Char&lt;/li&gt;&lt;/ol&gt;&lt;/ol&gt;&lt;div&gt;Time complexity:&lt;/div&gt;&lt;div&gt;&lt;ul&gt;&lt;li&gt;Insert : O(1)&lt;/li&gt;&lt;li&gt;Search : O(1)&lt;/li&gt;&lt;li&gt;Delete : O(1)&lt;/li&gt;&lt;/ul&gt;&lt;div&gt;Time complexity can be O(n) with hash collision and dynamic array resizing&lt;/div&gt;&lt;/div&gt;&lt;div&gt;&lt;br&gt;&lt;/div&gt;&lt;div&gt;Space Complexity: O(n)&lt;/div&gt;" style="text;html=1;align=left;verticalAlign=middle;resizable=0;points=[];autosize=1;strokeColor=none;fillColor=none;" parent="Ndzt5HTPb4c412SwF74z-9" vertex="1">
          <mxGeometry x="12" y="34" width="418" height="276" as="geometry" />
        </mxCell>
        <mxCell id="Ndzt5HTPb4c412SwF74z-11" value="Hash set" style="swimlane;whiteSpace=wrap;html=1;fillColor=#b1ddf0;strokeColor=default;swimlaneFillColor=#FFFFFF;gradientColor=none;" parent="1" vertex="1">
          <mxGeometry x="215" y="112" width="309" height="102" as="geometry" />
        </mxCell>
        <mxCell id="Ndzt5HTPb4c412SwF74z-12" value="No value only key&lt;br&gt;Key has to be unique&lt;br&gt;If we try to insert the duplicate key, it will not inserted&lt;br&gt;" style="text;html=1;align=left;verticalAlign=middle;resizable=0;points=[];autosize=1;strokeColor=none;fillColor=none;" parent="Ndzt5HTPb4c412SwF74z-11" vertex="1">
          <mxGeometry x="12" y="35" width="297" height="55" as="geometry" />
        </mxCell>
        <mxCell id="Ndzt5HTPb4c412SwF74z-13" value="Problems" style="swimlane;whiteSpace=wrap;html=1;fillColor=#b1ddf0;strokeColor=default;swimlaneFillColor=#FFFFFF;gradientColor=none;" parent="1" vertex="1">
          <mxGeometry x="-662" y="309" width="596" height="200" as="geometry" />
        </mxCell>
        <UserObject label="Pair Sum" link="https://github.com/SanjeetDutt/NOTES/blob/master/code/JAVA/src/main/java/in/sanjeetdutt/Hashing/FindPairSum.java" linkTarget="_blank" id="Ndzt5HTPb4c412SwF74z-14">
          <mxCell style="text;html=1;strokeColor=#b85450;fillColor=#FF3333;whiteSpace=wrap;align=center;verticalAlign=middle;fontStyle=5;shadow=1;fontColor=#FFFFFF;fontSize=21;" parent="Ndzt5HTPb4c412SwF74z-13" vertex="1">
            <mxGeometry x="18" y="38" width="120" height="40" as="geometry" />
          </mxCell>
        </UserObject>
        <UserObject label="Unique in sub-array" link="https://github.com/SanjeetDutt/NOTES/blob/master/code/JAVA/src/main/java/in/sanjeetdutt/Hashing/CountUniqueInSubArray.java" linkTarget="_blank" id="Ndzt5HTPb4c412SwF74z-15">
          <mxCell style="text;html=1;strokeColor=default;fillColor=#e1d5e7;whiteSpace=wrap;align=center;verticalAlign=middle;fontStyle=4;shadow=1;" parent="Ndzt5HTPb4c412SwF74z-13" vertex="1">
            <mxGeometry x="155" y="38" width="120" height="40" as="geometry" />
          </mxCell>
        </UserObject>
        <UserObject label="Closest Duplicate" link="https://github.com/SanjeetDutt/NOTES/blob/master/code/JAVA/src/main/java/in/sanjeetdutt/Hashing/ClosestDuplicate.java" linkTarget="_blank" id="Ndzt5HTPb4c412SwF74z-16">
          <mxCell style="text;html=1;strokeColor=default;fillColor=#e1d5e7;whiteSpace=wrap;align=center;verticalAlign=middle;fontStyle=4;shadow=1;" parent="Ndzt5HTPb4c412SwF74z-13" vertex="1">
            <mxGeometry x="288" y="38" width="120" height="40" as="geometry" />
          </mxCell>
        </UserObject>
        <UserObject label="Longest Sequences" link="https://github.com/SanjeetDutt/NOTES/blob/master/code/JAVA/src/main/java/in/sanjeetdutt/Hashing/LongestSequence.java" linkTarget="_blank" id="Ndzt5HTPb4c412SwF74z-17">
          <mxCell style="text;html=1;strokeColor=default;fillColor=#e1d5e7;whiteSpace=wrap;align=center;verticalAlign=middle;fontStyle=4;shadow=1;" parent="Ndzt5HTPb4c412SwF74z-13" vertex="1">
            <mxGeometry x="421" y="38" width="120" height="40" as="geometry" />
          </mxCell>
        </UserObject>
        <UserObject label="Triangle Count" link="https://github.com/SanjeetDutt/NOTES/blob/master/code/JAVA/src/main/java/in/sanjeetdutt/Hashing/TriangleCount.java" linkTarget="_blank" id="Ndzt5HTPb4c412SwF74z-18">
          <mxCell style="text;html=1;strokeColor=default;fillColor=#e1d5e7;whiteSpace=wrap;align=center;verticalAlign=middle;fontStyle=4;shadow=1;" parent="Ndzt5HTPb4c412SwF74z-13" vertex="1">
            <mxGeometry x="18" y="100" width="120" height="40" as="geometry" />
          </mxCell>
        </UserObject>
        <UserObject label="Smallest substring" link="https://github.com/SanjeetDutt/NOTES/blob/master/code/JAVA/src/main/java/in/sanjeetdutt/Hashing/SmallestSubString.java" linkTarget="_blank" id="onO6WxirUHfRUyPi9q4v-10">
          <mxCell style="text;html=1;strokeColor=#b85450;fillColor=#FF3333;whiteSpace=wrap;align=center;verticalAlign=middle;fontStyle=5;shadow=1;fontColor=#FFFFFF;fontSize=21;" vertex="1" parent="Ndzt5HTPb4c412SwF74z-13">
            <mxGeometry x="155" y="100" width="120" height="40" as="geometry" />
          </mxCell>
        </UserObject>
        <mxCell id="Ndzt5HTPb4c412SwF74z-19" value="Colision" style="swimlane;whiteSpace=wrap;html=1;fillColor=#b1ddf0;strokeColor=default;swimlaneFillColor=#FFFFFF;gradientColor=none;" parent="1" vertex="1">
          <mxGeometry x="712" y="-229" width="434" height="517" as="geometry" />
        </mxCell>
        <mxCell id="Ndzt5HTPb4c412SwF74z-20" value="Hash function, provide us the key within our memory limit&lt;br&gt;Hash(x) = x % M&lt;br&gt;Where&amp;nbsp;&lt;span style=&quot;white-space: pre;&quot;&gt;&#x9;&lt;/span&gt;M = memory limit&lt;br&gt;&lt;br&gt;Let memory limit = 17 and&lt;br&gt;values as [10,20,30,27]&amp;nbsp;&lt;br&gt;then 10 (10%17=10) and 27(27%17=10) will &lt;b&gt;COLIDE&lt;/b&gt; with same hash value.&lt;br&gt;&lt;br&gt;This can be saved by &lt;b&gt;chaining&lt;/b&gt;&lt;br&gt;&lt;br&gt;" style="text;html=1;align=left;verticalAlign=middle;resizable=0;points=[];autosize=1;strokeColor=none;fillColor=none;" parent="Ndzt5HTPb4c412SwF74z-19" vertex="1">
          <mxGeometry x="14" y="34" width="424" height="156" as="geometry" />
        </mxCell>
        <mxCell id="Ndzt5HTPb4c412SwF74z-21" value="" style="shape=image;verticalLabelPosition=bottom;labelBackgroundColor=default;verticalAlign=top;aspect=fixed;imageAspect=0;image=data:image/png,iVBORw0KGgoAAAANSUhEUgAAAh0AAAFNCAYAAACkBt2NAAAAAXNSR0IArs4c6QAAAARnQU1BAACxjwv8YQUAAAAJcEhZcwAADsMAAA7DAcdvqGQAAFskSURBVHhe7d0FeBRXFwbgg1uCS3B3C+5Ocflxp0CRFimlUFqgUAGKtMWhFIoXd3d3d3d3d80/39nZEGiAyO4k2Xzv88wzs7NLjGTnzL3nnBvGyyBEREREThbW3BMRERE5FYMOIiIisgSDDiIiIrIEgw4iIiKyBIMOIiIisgSDDiIiIrIEgw4iIiKyBIMOIiIisgSDDiIiIrIEgw4iIiKyBIMOIiIisgSDDiIiIrIEgw4iIiKyBIMOIiIisgSDDiIiIrIEgw4iIiKyBIMOIiIisgSDDiIiIrIEgw4iIiKyBIMOIiIisgSDDiIiIrJEGC+DeUxERET+cOHCBRkwYIDcuHFD0qRJI23btpX48eObz9L7GHQQWezSpUvy6NEjSZcunYQNy8FGopDqzJkzUrBgQbl+/bp5RiRZsmRy8OBBiR49unmGfOI7HpFFEN83btxYkiZNKhkzZtSgY+nSpeazRBTSdO/eXQMOjHD06tVLEiVKpCMf/fr1M19B72PQQWSRNWvWyKRJk8xHIqdPn5YKFSpImDBh9O6oTJkysmzZMg1OSOT169dy9epV8xFR8LN582bdI8jo1q2btGzZUh/jb518x6CDyCJbt27VfdWqVeXmzZt6bHfx4kVZuXKllC9fXrp27WqeDd1q1qypd44LFiwwz9CHvHz5UqZNm6aBKwJYNzc38fT0lEOHDpmvIGewT6EkT55c97lz59b9uXPndE//xaCDyCL37t3TfYIECSRu3Ljy/PlzWb16tRw7dkz27t0r3333nT7ft29fWbdunR6HZtu2bdN969atdU++w3B+9uzZpV69ehq4IoB9/Pix7N+/XypWrCgvXrwwX0mONn/+fJk3b57kypVLH1+5ckX3CPzIdww6iCwSO3Zs3d++fVv3ESNGlJIlS0r69On1rrR///76GFasWKH70CxGjBi6v3z5su7Jd8glOHr0qP5+/fjjjxp4YFQtcuTIGpDs27fPfCU5WsqUKXXkEvB3/eeff+px0aJFdU//xaCDyCJIHAVcBD6UtxEvXjzdhw8fXveh2RdffKH7KlWq6J5817RpU2nevLns2rVLevbsKaVLl5b79+/Ls2fP9PcoVapU5ivJWTBamTdvXjl+/Lg+zpYtm/eoB72LQQeRRcqVK6dz7UggHTJkiHn2LdzRz507V48xXB7aYfQHMPVEH1agQAEZPXq03nUDSrKbNGmix5hywVQeOc+ePXskZ86cWj5rhyq1xIkTS6tWrTi99R726SCyEIa/e/furccILEqVKiUxY8aUW7duyfTp073L7zBcHtpHO9BsCfkvgJ9PnDhx9Jg+DNMp+J06deqU/h7t3LlTf7/IeZCXhdElu7Rp08qrV6/k7Nmz+hg3G4sXL2ZPHhODDiILoQy0Q4cOMnToUPPMu9DDY+3atZI6dWrzTOiG6hWUza5atUovpvRh69evl1q1amlllIeHh/4eZciQwXyWnOnEiRMSKVIk/fu1BxczZsyQhg0bamXR7NmzpXr16no+tGPoRWShcOHC6dQK7kgxJI5h8Pr16+uc/Pjx43WEgwHHWxi2BvtdI/3XmzdvNAkZQRkCDgQaGzZsYMBhIeRroWzW52hGlixZJFOmTHqMoIRsONJBRMEWEvOmTJmi5cTIh6F3YRgf1RNLliwxz4jUrl1b77qRS4Bk0idPnuiGMlr7sX1DhdCWLVuYbOoPuGRi5OLhw4cSK1YscXd3lwcPHsidO3e0ggU5W/iZ2nukoPnf9u3bJU+ePPo4tGPQQUQUQt29e9e7FDsgULa9e/duvSsnv8EoUrFixcxHH4fpwREjRniX1RKDDiKiEA2t9XEhjBIligYRGOXwuY8WLZpEjRrVe+9zQ4m2vUyb/Obp06fSpk0brVbB6AZGOTBihOAPIx8JEybUSiL03EEFFhNI38Wgg4iIiCzBEIyIiIgswaCDiIiILMGgg4iIiCzBnA4KFVAeiPUoyHcovUR5JctSP+zRo0e6iBrXxQl6+FvGsvIoR6Wgh6Rlv1ZRMeggl4cMczTpQYtxIiJyvAULFkjlypXNRx/G6RVyedeuXWPAQUTkRPv37zePPo4jHeTyjhw5IpkzZ9ah8Xv37plnySe0cEZgtnz5cj83PgpNsK5J2bJldQG68+fPm2cpKGDBRCzhX6NGDZk8ebJ5loIKlnKYNm2a/p9gQctPYdBBLs8edKB5EnI76L8QdGA9mHXr1jHo8AWCjuLFi0uyZMkYdAQxBB24uGHNIgYdQQ+L2uH/wa9BB6dXiIiIyBIMOoiIiMgSDDqIiIjIEgw6iIiIyBIMOoiIiMgSDDqIiIjIEkEWdGzcuFH69u0rO3bsMM8QERGRKwuSoGPVqlVSokQJ6dKlixQsWFAbixAREZFrC5KgY8SIEfL69WtdJAb7L7/8Um7fvm0+S0RERK7I8qDj+fPnsnTpUj2eM2eO5MyZU4/DhmV6CRERkSuz/Ep/8uRJXUIbQUbRokVl586dcuXKFYkVK5b5CiIiInJFlgcdZ86c0X3atGnFzc1Ng4+oUaPqOSIiInJdlgcd9sWSEiVKpHsiIiIKHSwPOi5evKh7Dw8P3RMREVHoYHnQ8fjxY90z6Pg0LDV+7tw58xEREVHIZnnQgeoVSJAgge7pv5Bo2759e0mdOrVkyJBB7t+/bz5DREQUcgVZ0BGSkkcfPXokq1evlnHjxsny5cvl5cuX5jOfhhyWffv2iZeXl3nm4+7duydlypSRIUOGyKtXr6RIkSISPXp081nHefjwoX6O7t27S8+ePeWnn36Srl27SufOnaVDhw7Srl07adWqlTRt2lQaNGggtWrVkv/973/y22+/mR+BiIjIn4yLoaWMixeuvl7GBc8882EPHjzwmj17tlePHj28rl+/bp5914sXL7y6dOniFS9ePK8MGTJ4bd++3XzGd9OmTfPKkyePV7169bxu3bplnvUdnv/666+9okWLpl+zfcuVK5fX06dPzVf5bu3atV7FihXz/jcTJkzQ80YA47V+/XqvTZs2eT158kTP2V26dMkrS5Ys+vpIkSJ5TZ482evNmzfms47Vv39/76/NP1uUKFG8jGDI/Cghw+HDh72/dvJdsmTJ9Ge0bt068wz5hJ8Lfj74OVHQ6tWrl/5f1K9f3zxDQcm4KdX/D+Pm1TzzcZaPdBhBgnn0cQsWLJA0adJIjRo15Ndff5XRo0ebz7yFbqbVqlWTPn36yM2bN+XYsWN6p/4hw4cPl7p162pvkKlTp8r3339vPvNfW7dulRw5cuhoAPJQYseOLUawIuHChZPdu3fLhg0bdPQjW7ZsOmpTvnx5OXjwoP7bgQMHapt3I7jQx0mTJpWMGTPKoEGDJG7cuGIEI1K4cGGdYmrZsqUYwY2OppQrV04OHTokRpCjDdSMPyoJEyaMfgxHK126tBQvXlzix48vTZo00a+jdevWOsLxzTffSKdOnfTng9EPI+jTnzG+r5UrV+rPgIiIyN/M4MOpcLe+ePFir0aNGmlEZN9y587tZVxovYyLnteoUaO8zp8/72Vc4L2aNm3q/RoPDw+vFi1aeF29etX8aG8NGDDgnY+HrUKFCuaz75oxY4b3a4yLve5LlSplPvuuuXPneoUPH15fEytWLC8jQNG7e3wf9lGPkSNHerm7u3t/TGwxYsTwat68ufdjIxDxMgIh/ZinTp3yPp8wYUL9uPbHqVKl8ipUqJAeR4wY0Wvz5s36b6yAr8sIdMxHrokjHZ/GkY6P40hH8MGRjuDFvyMdTg86bty44WXcUesX5d+tbdu2Oh3hm/v37//n9bjo+3YBxTRJ1KhR9TUIcKZPn67HCILeh4uwPZjA9MjFixfNZ7w08LF/rjlz5ujezc3Ny7j798qcObP3c9jq1KnzzjTE2LFj9Xz+/Pk1eMFzixYt8kqcOPE7/27EiBHmv3C+LVu2eEWIEEE/b9++fb3mzZun00IrVqzwWrBggQZqEydO1IAQ02GrVq0y/2XIwqDj0xh0fByDjuCDQUfwEqyCDuRb2PMacAffsmVLPcZWuXJlza8YNmyY17fffuvl6enp/Ry2fPnyeb1+/dr8SO/KkSPHO6/FljFjRq8DBw6Yr3gXLpp4TeTIkXWEAjkZeIyvae/evearbOyjMXjN+zkXyBexf747d+7oRSx69Ohez58/97py5Yr3c9gePnxo/iubEydOaL4Gvl+fMKpi/zcY9XFWDodv8LPw+TV/agsTJozX3bt3zX8dcjDo+DQGHR/HoCP4YNARvASrnA5URiCvATkPxl21/P3331K1alV9Duuu1KlTR9q0aSN//vmnLFy4UM/bGRd46datm/norVOnTokRKJiPbPBx9+zZI1mzZjXPvCthwoS6RykqVrRFTgYgv8S46Oux3a5du3SPZfeNi5Qew/79++Xrr782H4ls2rRJczh27NghRvCinwO5G3bI9/AJbd/xeny/PtnbwgPyV5yVw+EbI8DSfA3klxgBkZbnIvfEvmXPnl3y58+v+SkVKlTQ18aIEcP810RERP7jtKADJZlDhw7V47/++kty5cqlxxEiRND9c7N01m7ixIm6x8W5b9++etyvXz+92PuE5NKCBQuaj0STLvG5kNi5ZMkSuXTpkvnMWxUrVtQkSFxUM2XKpBd+lIECghufUKYKSEhFiWj16tXF09NTN5+vRUCEPhrp06c3z7xr+vTp5tHH4eu2e/9n4mwIBn/55RfZuHGjBkRHjx6VI0eOeG8o9UVC7Zo1a2Tx4sXy888/WxoUERGRa3Fa0IHgAl1HcRfdsGFD86xIpEiRdP9+FQtGDgCjH6iaKFSokPa2QEXK+zZv3qz/Hh8blSWotChbtqwGF6jKeB8ulKjIwEX18OHDMmzYMK3cgKdPn+reDnfzgBGI+fPn60iIPfBBdQm+TnwO+4iNTz6DhveDJb/AiAkREZGrclrQETlyZDlx4oTeyWMlWTuch/fv6jFiARhNGDFihPcaLR8qsUVQs2LFCunfv78GAMmTJ9eRDJSZ+gWmWsAeBNkhQMLXPWnSJB1xQeOsWbNm6QgKylgRDKFsFOffh/JZu2TJkplHH4emW4DAyB4IERERuSKn5nSgn8P7w/H2i/z7QQemPBBI4IKOY6w7gj4WlSpVMl/xX8i5+O6772TevHm6RglGMuwjFZ9iXwPm/aADMMWD4AMjLj/++KPmWiROnNh89sMmTJigHTxr1qwpo0aNMs9+HKZ58D2jdwg+LxERkatyatDhG/tIx/sjGLjLxygH7vzR+hutuNetWyexYsUyX+FYHws6AgrL9Y8dO1Zmzpz5TlLpp2C6xp7zQkRE5KqCTdAB6AA6Y8YMnZIZMGCATpc4CzqAgv3rISIiIueyPOhAsieqPrAPSvaRDnd3d90TERGRc1kedKDcFb02UI4alOxVKww6iIiIrGF50BFc2Bctc2ROBxEREX1YGLQlNY9DlVatWmmFyU8//aRNr8h1odFZ5syZNX8HVVFWwJ8VpvDc3NzMM8EbSs4x+ockaKyCHJTevPGSZ89eSdSotkaCwQE6KyPJHRVz58+fN88GTy+ev0INvkSM6JqrQffu3VsGDx4sn332mUyePNk8G/wEx99jZ/jqq69k9uzZ2kYC1Z6fhKAjNGrXrp32i8eicuTa7GuvcAsZW7Qw5b1ihf3WK6zE8fV5bh/bwnnFCNvK2L7w5TluVm6h7fc4WKy9Epzhzg7QiKxZs2ZGVPpGH5PrQSmzf0qYKWiFC+Nh3KhHkHAS2zxDfhVGIhk/v5jGFtd4FN52koJEaPo9RgPQPHnymI8+LtROrxw/flwXOcNaK8jruH//PvM7XNjr16+9u9BaAU3iMFXRsWNHXd8muMPbAH5G4cMH/YWqbKFRcvTQdRk9uZaUreS8snn/wnuFbw0Pg5ObNx5JrrQD9fjEtR8kchTXHNrH/0Vw+F39mOD6e+wM+L/w6/Uz1AYdgGZkaECGucGcOXOaZ4kCD0HH+PHjtUNuSAg6gpOiOQfL4QNXZeKsRlLxf5nNs+QXN64/lIyJe+vxpYc9JYqLBh0hAX+PfRdqp1cgX7582uqcAQcREZHzheqgg4iIiKzDoIOIiIgswaCDiIiILMGgg4iIiCzBoIOIiIgswaCDiIiILMGgg4iIiCzBoIOIiIgswaCDiIiILMGgg4iIiCzBoIOIiIgswaCDiIiILMGgg4iIiCzBoIOIiIgswaCDiIiILMGgg4iIiCzBoIOIiIgswaCDiIiILMGgg4iIiCzBoIOIiIgswaCDiIiILMGgg4iIiCzBoIOIiIgswaCDiIiILMGgg4iIiCzBoIOIiIgswaCDiIiILMGgg4iIiCzBoIOIiIgswaCDiIiILMGgg4iIiCzBoIOIiIgswaCDiIiILMGgg4iIiCzBoIOIiIgswaCDiIiILMGgg8giDx48kD59+kinTp3k+fPn5lmigDu474osX3RU7t19Yp75r5cvXxu/b6/MR+Ro+NmOHr5FZk/bJ69evTbP0ocw6CBygBcvXsjChQvl8OHD+jhWrFi6jx07tu7v378vBQsWlK5du8qff/4p69at0/NEAdW/5yopnnuI1P/fBMmRpr+M+WurvHnjZT5rM/3fPZIhUS9JFO1HmTZpt3mWHOnHjovkh/YLpGXDaVKtzD/y4P4z8xnfvXjxSvbsvGj8X70xz4QuDDqIHOCPP/6QKlWqiKenp4wePVp69uwpc+bMkTZt2mhAUqNGDe+ABPLkyWMeEQXMpH926D5efDe90HVuN19aNZqm52D+rAPSuskMuXf3qT5esfiY7smxUqSKLe7ukfR4y4azUrX0KLl967E+fh9GQupVGS+fFRguP/+w1DwbujDoIHKAnDlzSowYMYw3lVfSsmVLadWqleTPn1/ChQsnzZs3l9WrV5uvFBk4cKD3CAhRQI2cWFf+nlRXDp7vIp17lNZzm9ad0T10/Gqu7uMncJPIkcNLucoZ9TE5Vptvi8rZOz/L2p3tJG68aHJg7xWpVHyk3DEDj4gRw+keBvZdJ+tWndLjo4ev6z60CeNlMI+JKBAQcPzwww86fQJubm7y+vVrefrUdqcJ2bNnl+3bt0ukSLY7I/qvojkHy+EDV2XirEZS8X+ZzbP0KYvmHpJmdacYv3Nvh+0TJYkh2490lChRIkiYMGHMs+QsRw9dk8olR8ndO7Ycm5ZtC0qvPysZNx9h9Zxnqr7y6NEL/X+Zt7KFpE4bV18XmnCkg8hBwocPr9MsGNXInDmz8eby6J2AI126dDJ//nwGHOQUlaplkYF/VzcfiYwYX1svbFGjRmTAYZGMWTxk1tJm4h49sj6eO+OAHDl4TY+vXLqvAQcCjT0nO4fKgAM40kHkBBj1mDx5sqxatUpu3LghJUuWlPbt20vkyLY3I/owjnQEHN7ORwzcqBe3780pF7LescPXpV7V8XLh3F35rEIGmbagiZ7ftumcpEobR+IncNfHoRGDDiIKUn/+tka2bjorfQZWkbTp4/kadFw8f1cSJHSXiBHD62Oi4A7JpAP7rJWylTJKkRKpzbPEoIOIglSudP3l3Jk7EiNmFDlz66f/BB01y4+RtStPStGSqWXuihbmv6L3oTICd9ZnTt6WSxfvyf17T43tme4fPnguT5++kBcvXmtZLWZbkGeADdMvSICMHTeqxIkbzXtLmjymJEkWU8KG5Sw8LpMPHz6Xa1ceyPWrD+Xa1Qd6jO3G9UfaC+XVqze6IacmbNgwEj58WM2lieYWyfjdjiwxY0WRWLGjStJksSRF6tjGzzeWRIoU+oJoBh1EFKR6dlsmg/rZ+pagCqBKyVHa9OrfOY31oodeFFCpWmaZMLORHodmjx49l707L8npk7fk1ImbcubUbTlt7M+evvNOEqkj4KKZNkM8SZ8xgaTLGE8yZvaQ/IVT6MXTVaF/Bn6m6KWxZ8cl3WO65PHjF+YrHAcJpSlTx5EUKWNLpmwekrdAcsmSPaFLj+gx6CAKJH2TOnNGDhw4IOfOnZOrV6/KtWvX5ObNm3L37l3tRIocD1SyoIQWW5QoUSR+/PiSIEEC7y158uRa3ZI6dWp9TWjx9OlLyZ2uv3H3+FDadSoq+QqmkJVLj8kPP38mGRP3Nl8lcupGD5e+2H0IOl7u2nZBNqw5JeuNDRfCDwUXSBhNliKWJE8ZS39W0WNE1g2JjVGjRpCIxp017sLxtv/6NbY38si4g797+4ncwXbniR7fvPFILl24Z37U/8rqmUgKF08lRUukkfxFUkh0M3EypELVyYLZB2XH1vNGkHHpgw2+IkQIp9N8Homiiwf2CaNLPC1JjiDhwofV0Q37zxejSs+M322MMuHjYbt185GORl08f++D/4cY/fDMnUTy5E+mW9GSafT/0FUw6CDyB/y5HDp0SLZs2SL79+/XDcEGKlUcJWrUqJI1a1ZtNFaiRAkpU6aMd4dTVzVlwi5p98UsvWguWN1CChRJKdXL/mNcaE/r881bF5B+Q6rqcWiAUQyUwCLQQPLhs2fvtjHH9EemrB6SKk0cSZMunu5TpY2rjaocdZf87NlLOWvc8Z88flNHVE4euym7tl/QUQCfMEVTpmIGqdMwp+5DypQBvidUl8ydvl+OH71hnrVB4ICfb848SY0tiWTPmVhH3RDIOaISCAHH1csP5NyZ23LeCEJOn7ilIyp7jQ1JwD4hkClWOo1Urp5VylfOKHHjuZnPhEwMOog+AWWva9eulUWLFsnixYvlwoUL5jNvYd4bJbHYEiZMqFu8ePE0WIgePbpxh2TcCYULp6MiGPFAkIKREFS2YI+RkePHj8uxY8d0VMQn/LsCBQpIhQoVpHbt2joS4mrwc6laerR2dEyUOLqs291eexo8ffpKvuteSjp1K6kXN1eGi/zieYdl4j873mnyBbjTxcgCEhIxupA+U3yHXPwCAvkMCIS2bjwrG9eefueCjbycarWzSdNW+SRL9kTm2eADUySTxuyQaRP36BSeHX6WyBlCpUkuI9DI4plQc12shmAEwd1OI7jbbWwIus+fvWM+a/s6CxVLKTXqekrN+p5B8jUGFoMOIl/gIrhs2TIZNWqUrFix4p1+G+jHkS9fPsmRI4dOh2BDXw6MUAQWWqafOHFCDh48qKMpy5cvl5MnT5rP2pQrV06++uorqVixoktNw+Cur3D2QTrdUqFqJun5e0XBuxPmvF0ZLtpoaT514m7vluWA3ImyFW2VD9lyJAq2QdexI9dlzrT9uuAZEoLtkIPzfY/PdMQgqCEJdNTQzTJy8CadRrIrWDSlESRll8rVs2g7+eAGl+ejh67LkgWHZemCI7Jv92XzGdHE1CYt88kXrQsYgXoM82zwx6CDyId79+7J+PHjZfjw4XLqlK1dMcSNG1fKly8vlSpV0umOmDFjms8439mzZzX4mDFjho642CVLlkx++ukn+fzzz10m+MCKqc3rT5Ecxt3mgtUtzbOuad/uS5pEa2+LDZg2qds4pzT6Iq+WD4ckuJQgHwIX99lGEGK/tFSpkUV+6lNeUqSyPnhERc+kMTul3y+rNE8FkIvx1TdFpEY9T0mYKLqeCykuX7ov82bslzF/bfMeAUEw+r9a2eSb74sHiwDvUxh0EBkwvdG7d28ZN26cPH5sWzMBIxcNGzaUJk2aSN68eYPFhR2B0JgxY/TrvH7dtnYDcj8GDBig+R8hHd6OcLcfPgISbsNo4h7mtINqKsEZkKD5S5elMmf6fvOMSInP0hqBRh4pXyWTS1QunDl1Swb3WydTJ+7RKYNo0SLKb4MqS4MmuS37v7xy+b58UW+K7NhyXh9j2q5jt1JS7/NcIb5UFT/T1ctOyOgRW2TN8hN6Dj/XZl/mly6/fBasE64ZdFCo9uzZM/n999+lX79+3sEGciawOiyCjeCawImve+jQoRooYdl8wNc7YsQIrYwJjvBWc/XKAzl3+racM+7Szp2+I2eNY9yxIaMfVRSYWvENhr5RNRDfw108sBl3qBkyJ9AEPyRRhoReEujlgOF93HXbv09MI/3Yq5ykzxhfH7sa/P+2az5L8z8AfVcGjqyuIzrOtH71KWnZcKrcuvlYF7vDgngt2xXSEmBXg4TY33qskPmzDupjBBw/9iqrQWxwnJJj0EGh1sqVK6V169be0yhZsmSR3377TXMlQkpDpDt37ugy+oMHD9aLOkY9Zs+eLalSpTJfEbRwt4kKjA2rTxsXgpNaFutoWFY8a45E4pkriZQul17n6TFCEpygVPLzWv9qAiYgWOozsLLkK5RCH7sy5Ef9PXSL9Oy6TMt/EWAtWNPSKVUY+BsY2HetcRFeqcf4XGOm1tc1UVwdArtuHRfJ/j22vI+8BZPLuOkNtKw3OGHQQaEOqkM6dOggw4YN08dx4sSRvn37StOmTUNsbgSSXRs0aCC3bt3SfBM8zpMnj/msdfB2smv7RZk1Za/ebaLc8n0JPNwlhdkQKXmq2JIytbFPEVsrHyIZd6WRjbvRCBHCGhcrL+3wiF4Ht248luvXHsqN68Zm7NHn4OD+K3L8yA0davYJlR6flc+gowiljCAEQUlQ8rkOB+66f+lfQZq2yh8s70KdCb0wqpX5R3MrkHswf1ULiR3HsSMeI4dskm7fLtLjhk1zS5/BVUJkhUdAIcCbNmmPdP1moSbP4m9twsyGkqdAcvMVQY9BB4UqDx8+lDp16sjSpUv1cbNmzaR///4aeIR0ly9flmrVqsnOnTs18XXz5s1awmsFlCLOnrpPxo7c9k4pIqC8s1jJNNrkqFCxVA5tdIQyU1zUD+y9omWmq5Yd17bfdm5uEaVhszzSom3BIElkXLX0uHxRb7L2XkicNKb8O6eRZMuR2HzWfw4ZQdb5s1hALH2IzftApUvVUqN02sMzV2JZuvErh30va1ackNoVx2ngixLrLr+UMZ/xH0yDrV1xUk6dtAXMBQqnlBy5k+hxSIE+L41rTtK/DeRE/T7sf9K4eV7z2aDFoINCjUuXLunUCZp5RYwYUcthUfnhStABtWjRotrALEWKFLJt2zbtduosKHP9a9AmmW7cXeHOCtBYCaMMaGaEck/cbVkF1QpIHFy26KgsmH1IF4qzQ5Lm152K6bCzFbZvPieVSvytIzYItsZOqx/gKYUBfdZI7+4r9BhdW3/uW0GPQyIEHuUKjdDfl+9/Ki2duwd+NVxcZEvnH6ZdP2vVzyF/TagdoIRVjKQhKDpx7N0RulbtCslvAyubj0IG3Ah0/GquzJyyVx8PG1tL6jXOpcdBiUEHhQqHDx/WUtcrV65o0665c+dKoUKFzGddC75HfG9oyY5mYtOnTzefcRyMJmB12FFDt+idIaD8sHGLvFruGRxKETHtgpEGZPjjztWuZj1P+blfBad+jcjhKJ5riCbOli6fXteRCWieyfABG6RH5yXmI9E253tPfW8+crwfOy2ScSO3yZ9/VZO6jZxzkUIDtA5fztHppp3Hvwt0nwnc1aOxGnJk5q5oHuDqFPvHwQhZYSNgxu82qkRg3+nvdZG2kASX964dFsqoYVt0Om/mkmZSrFQa89mgwaCDXB66f+bKlUubbqGJFzqLYhTAlWFqpXDhwnqM3h7FixfX48DC28W8mQfkh/YLdIgccudPpiMIZStlkPDhg2dODDL8B/y2Vqb/u0cfo4QTnU6/bF/Y4UmnCHZqVxyr/TdSp40rq7a1DfCU0uplx6V2pXF63LpDEYkVO4pkyuIh5Spn0nOOhkZlBbMO0OPkKWPLnpOd9djRkHtQPPdQXU24e+9y2mMioC5fvCfZU/XT380VW9pIrrxJzWf8ByMDaeL9omumLNv4leZBYOQsiXsPDT427++gFVMhDX4fUTq8cM4hzW9atql1kH4foSuTiUKltm3basCBEQ50GQ3OAQdGEPr3XCXli/4lFYqNlMnjd2nGv39hpKNx48Z6jLJaR7h754nU/98EaV7fVoqItSgwZYA3aJRCBteAA7A+yYjxtfWilDtfUr3A/PzDUqlRboyOSjjS5HG7NODAG/y/cxsHOODA70L7lrP1GG2vf+1fQb7tUtJpAQcgyLHD1FRAfvf8AtVhaIIGSxcc1n1ATRi9QwOOPAWSBTjggCMHr2nAgf8vBNKANuQIODBKkCqt43OCWjeZIYndfpTdOy6aZxwPX/vIiXV0WhFTWh2+mqM/r6DCoINc2qRJk2TChAn6Jjd16lRJksRvCWFPnjzRERGf7c8/BH/AL1/63l/CPzDXXSDLAO3jgLwE5AR83XyW1Ksy3ngz9P+b/3fffad7jHTcvv3uIl3+hbvJikYQtGLxMc3ZaNuxqGw5+K1UrZktRDXuwkUJyYuDR9fQof3N689IybzD5MDet+2lAwtre0Drb4tIugwB77+BKRVMz2AaqP/QKpb8nLGex5df26YdkYuCBd+cpVyljLpHtROCwIBCtQZ8+bVtZC+gMPoFbkawiJ/1kycvpPt3i/Ucuqo6I3kXI29YzG/dqneXOnA0rII7YlxtHdXDewvynYIKgw5yWchtwBolgF4WpUqV0mO/6Nq1q1SuXNlPowSlS5fWZep37dplngkYzHGjLBSNk/oNqaINjfDmh9LTgX3etj/3K0wloXoFC8wtXLjQPOt/KHUsW2iEDr3HjhNVFq/7Un7pV8H7TTqkQQDasGkeHfXAqqwIqMoV/kvWrgz8Gz9+RmgFjsAMVTMBhZ4L/47dqceD/q4hMWNZ02EyfgJ36T2gsne+C0a3nAXTN3a3AzjahGAc/38QmFEOyJglgSagjp1aXxe1q1JylFZ/IL+jW8+y5qscq2XbgrpHwzxnwxpGzdsU0OPB/dfpPigw6CCXNXnyZOMO6rE2/frhhx/Ms36DBltw9OhR3X8IuoGuWbNG12zp0aOHedb/0LvA3q4ZjZOaty4o3xtBx6+/26oUkAjm37tBBCwIiGDfvn26968tG87oNA/uuNH5c/nm1pZVfzhb5mwJZfX2tlK8dBqdRvi85qRAj3jMnGyrFMAS7wFNjsTI2c8/vE0cbdlomqSK+4vkzfiHtGk6Q5eXd/bweGyzYyiqQZwFIyl24QI4NXf71tugCN1qAwN/L7Ub5JRLRhCTOelvsnfXJT3/5MlL+bXrUu98IEfyNEtx95ify9m+am8bDUIDMQRWQYFBB7msf//9V/fNmzfXu1v/wOgA2EdKPgQdQe2wfktAYcXILNkT6rx0ugxvF/rCUDeew3okO7faghL/SJrUdveHUR//QgvrOpXG6YUHc9xIQEuVJq75rGvACMKkOY31+0NQhz4PPpcS96/TZm+HvIFoxoS1NDDlYIfcDmwoC8VUAkadUJHgzMAjTlzbyIq9DNoZrl62te+HGDEDlveCJnJ29iqqwEBQh5wlnxAcYToC+RdoN+7In3s2T9vy/6dP3NKET2dDrxj7+8vGtad1bzUGHeSS0IsDW4QIEbRTp38gj+Pq1at6/KnmWs+fv31TRqJqQGGudf3u9rJsY+t3AiQcY4QB0EMgoPybD4A3wK+aTNe7PCyrPm9lC6evl/Eh40dt134XKH91BnSsnLagib4ZY8SpWd3JAb4A2C/S7tED3gCtYfWJ5pER9H5TWEtAV25to+28MSoDGPlaNDdwCZgfg+khcOZIx8wpttG3AkVSiptbwLrGIiDH9AccPRjwoN/OZ5dYLM0/4K9qMnxcLa0cApSJ79p2QY8dIXW6uPo5ETBhIUAr5C+cUvf7fSyTbyUGHeSSZs2apXssRY/unP6BJmKAluiJEtnuRD4EUzh2WHDN0XB3e3CfLQDKmNn/60egWRj4dyn+YX9ukJ1bL+gCWaP+rRdkC2Xdu/tEOraeqzkOqJw5ceyG+YxjYZGsaQub6ve5z3gz/mfEVvMZ/7FfPAN6scb3iwoKQDOqXn9U0k6uOfMk1eXLZy9rri3UAaXLH4Pn/xmxJUB35s+f274GdLN0BgR16NUBWPU1oFAxVbCYbZ2hdattaygFxh8j/icHznWRWy/7yISZjeTzFvm0V0nP3ytKqXK2G5Ct5vo570MVVOWSf0uPzrbkU79AcmpqsyoGox1WsK9A++iR80axPoZBB7kke+CAZEr/wvol4O7ubryp+Z6x/uDBA/npp5+kV69e5hnR9uqOhItFlw4L9C4Ia1Vg868tW7boPn369Lr3C/ROwDAyYO2KtOk/PoKD6QCMRjhjuN9+8QNcqIYP2Gg+cjwkNmJZcPi95+oABQ721WK3bfb9wvQpu7bZplU8Erp7Jxm+zz26LbD5WCCIclf0Zvj+6wWaDOlfL8xS2ShRnRNsomcE7uzxPVSpkdU8GzD2ZldY7yegI1R2CAISJ4nh68jgm9e232/7z/99ndvNly0bzvr7dzStWeFkb7vubPbf66BKBGfQQS7Jvtx7jBj+T+aLFs02jYBpFqxAiykUHB87dkzmzJkjDRs2lMSJE8uvv/6qr7Nz5EUXWfntW8zWboh4Axw8qsY7Q79+gd4kmzZt0n9ft25d8+ynDeq3ThdaK1c5oy6a9TH4nr+oP0VHI1B+6mjR3CK+8+aI5bux3oqzNG9TULtOompj2qTd5lm/s/fQWLfyZICCFnuycIxYUbxHPOzQcv73Xqvl7yGb9THyfz4EXUXtkvmoEvEr5BchIEAjMkdDhU/7FraRSExbBHZBvtoNckhUIzg6deKWU5I9Ycn8w97VTRh18o19aXn/imH2cblw9m3Lfmc6d9ZWKZPICK6CAoMOcklYWwWePfP/G3+aNGk0qECwkTZtWokcObLxphZVMmbMKDVq1NApFXQ5TZ48uXTp0sX8V7bVax0BVSyl8w/XxmDQ84+K+kaHfAGMQqBN84hBG+Wn75dIpzbzPphgOm6crZMlSoU/NU1khwv6isW2ip0WxgX4U7kgeB59DQAVLo6G6Yq1u76W/Wd+0NbWDx88ky3rz5rPOh4+RwMz0Fqx5Jju/QOLmKFNOUanhvy+3jzrdxjNws8Uq+emivOz5M/8pxTI8qekjveL5Er3u/T9eaXxe/lK7+4/NC2xZ+dF73wPBA8BuaP9c0Q1OX6tu1b4OBISYhtWm6AL4BUunkrXXgksrFTb5tuievxrl2X+avaG31k0YLNXjr0Pf1s1K4yRRjUm6WP068ie878L9vnss7Fx7zfmkd9EMVfBfT/IdAaMLq1fZZuGKlnGmsUg38egg1ySvQnY6dP+z9BGgDF//nzx9PTUvA47TLWkSpVKq2FWrlypoyD2BeM+dXFG8LNu3boPNhFDu+WlC45IzrT9tRspgguIGDGczJuxX9Im+FVSxPpJiuYcrOtDdO+0WPMuxv29TQb7cnFDUISmaNCoUSPd+wXu0HFBiBsvml4U/AIXNrh9y9YW3dHQShzdT7N62j7Prh2OS+TzTdmKGXS/ae0Zf8974/fgh59tUzRD/1ivXS79A1NZaFwWL76bNo06efymLj6G6iVAlU3fwVVk+qKmvjarQjkt+ktAwaIpZc2OdnrsX/g+HD38jt+PBtUmyplTtyV+AjfNFfLv6N2HfN25mE6PIREYzfT8Wl6+aO4h7YdS1/g3Pbst00D+m1az9W8sa4o+Uq7IX97r9qAr7Ijx/51CxajY91/P12OMDPp3GtQ+hYX3AGcbNWyzVuMgeTejE0ax/IJBB7kk+2JuWMLeXv7qH1irZe/evYKl8NGrAzkiCBwQxIwePVr7XyAIOXjQNqSKnIlIkT48TNy3b18pUaKELqPvG5Smomrh/XJN3P2gfPLObVs/ArxJ404aq5ZiNU3U3bfv/O66FZjyaNGihVbgoOV79erVzWc+DXPtgHl2v7Y1d3e3DQ/f8dEzwRmy57QFkvaAzFmyeibSnAqMVgRkVAXD/VhdF1NU9aqOlwvn/FeC26BJbtl/9gcNGKbM+1w39Ec5duVHWb6ptY5AfWi9mKOHr8vTpy914bMJMxs67KIeWFiWv1S+YZoQjOmUcdMbOnT1YVQgTV3QRFuYozlb8/pT/HQRL2hcfBHYYwQG04oI5CeN2amjiVcu3dcqHqyYjOqmvyfV+U8eDf7WKhYfqVM7mOL53gw4/QOdWdGkrlwl57W3B4wATfzH1nDui69sychBgUEHuSSsKIsRi+vXr8vGjQFPPowSJYpkyJBBp1t8jnrY2XNH8ubNq/sPwYqvYE9wfd/7Q6vorojVUL/7sZSW7KELKLLqrz7ppSuMLljdUtdT6PVnJcljrhNhN2zYMJk2bZoGRVhh1s3N78up2zPzy1Sw3e37hb1XAt64nckzt21Y+5oTpnF8wl1+OjMhNCANlPDv8X+DUmcMZ1cuOcrfgQemeTCMX9a4IGHLnS+Zjn58SoMmuTRYmbeyuU47BAdzpu/X3iJIbsVoxDIjgMpf2PHrHyGJd/Jc22q+aNf/ZWOUfH98xAPTR+t2t9fRqep1suvPGkEfpn1GT64nB893kUmzG8tnxt+Db6OZmOq6ef2RjgwuWNMqQA3hMOqw+0RnbSjnLAhEMcqE6UmUhmOtpCBjRGpELqlevXrI7PQqUaKE15s3b8yzjvXs2TMv48LudffuXfPMf128eNErUqRI+rXMnz/fPPuuhw+feV2+dE/3gbFlyxavCBEi6Of6/fffzbN+lzbBr16xw33vtXPbefPMp33dYpb+m05t5ppnnGP75nP6efJl+sM84zwNqk3QzzV84AbzjP9dunjPK0eafvpxsiTr7bVp3WnzmdDBCDK8Gla3/RyxVSw+0su42zafdZ55M/d7JYjcVT9nYc+BXqdP3jSfcQ78zd6//9R8FPy8fv3aq0ntSfrzSBnnZ6f/PD6FIx3kstCWHHf7WPBsypQp5lnHwpRK7dq1P9oHY+zYsZqUivLdihUrmmffhYRJ3CUFtEkSLF++XMqVK6d5I+XLl5dvv/3WfMbv7CMuGHL2K/+8NjDsVSvObFhl98y4M4SPlaV+Ckov569qoXeWVy4/kCqlRkm3bxfqXacrw/9Prx+XixEcypL5R/Qcyn/nLP/CkgZzWIRw4dpWOkWGnJqSeYbqdImz4G82eiCawTkTfte+bj5bO6piqmjc9AZB3lWYQQe5LEyLdOzYUY9btWolO3bYmhFZDYEANuSC+DZFE1jGzYMMHjxYKlSooP1DihUrphU2/m39Du7utuTBhw/8nkBpzy/wa8Uwhtn7/LTCuBC/bYPtF48f2YbKA7pUvH/cuG6rgAhMZ1FA+e2anV9rHgaMHLJZiuUcLPNnHQh0T4ngBlNR6NiJZOiBfddqIiyqeVZtayt9BlXxNfHVWTDliJ+7fTl3JIY2qDZBTp2wphdGcIBVq0vnHyZTJ+7WqaHfh/3Pu6dJUGLQQS7tl19+keLFi+vCb7gof2oBN2dAvgcSWgsUsK3w6EgY1fjyyy/lm2++kTdv3kjjxo1lxYoVEitWLPMV/mPv6XBwv9/Xaongj5EOVDDkSNNf/ui9RkYM9F+uDRI8kRNQrU5284xzoB+GPVkVCaGBhdESVJzMXNxM777RZbZZ3SlSKNtA7SthRdWCsyBwQv4EkqCzJu+jTeVQzYFqI+S1oH17DnNRM6shURUjTZ27l9IcmWULj0rBrAN1tAmdX10V3gcmjdkhpfMN08ZwGF2avewLadIyn/mKoBUGcyzmMZFLQrJn0aJFdS2WBAkSyNSpU7WSJKRDt1EEHPYKGgRY3bt39zXhza8G9Fkjvbuv0DuiOcubm2c/Diuzduu4SLr3KvfRFWgx1Fu97D/ePRGWbfxK8gRiYTRnQRUDyieR4LdobSvzrGMgsXH839t1afFbN20lxliEq1Z9Ty3JDEjX2aCAxQBnGAHTv+N2aZWHHcqncXFDD5HIkZ3TzTQgUBWG9uT2/iUxYkaRRl/kkWZf5n9nif2QDJfyDWtOyy9dluoqsoC/R6zZE9AVj52BQQeFCigfRZ7D/v37ddoBF+iuXbsGaAoiqF2+fFmDC3vzr+jRo8vIkSOlXr16+jgwUNpYLNcQwZobJ2/0cNhcNe6Im9aZ7D23jjuv4qXT6nFwg14o2gp+YGVp1c5Weu1o6CMxbuQ2GT5gg/dUDqTPFF+Dj9Ll0usFPLiUvKKJ1qZ1p2WjcVHbsPa0TpHZoZ9HjXqe0rh5Xp1OCUzQ62zoKorgw2f/FFSsYPqrWKnUIfL9AJdwLIb4p3HDgPWSACM77ToVlU4/lvpgeXVQYdBBocaTJ090qfqJE22reGK6448//pCCBX1f4yK4Qbnt8OHDZciQIfq9ANZ7GThwoCRM6JjOkXg7yJ6qn1y+eE96/FbuPz1AAgIfE23SJ4y25dT80q+CtO1o6yAZ3GAdmVoVx+oxSpSRDOpMmFpZt/KUtlxH0iVKMO2wemreQim0l0SBwil1FMSKfJYHD57JmZO3dBpo++bzsnHtKW1Q9j40KkMzLEx3BSYB2mr4fcSy7sivWb7o7XQr8m8qVs0kFapmlnyFkvu5T01QwPdwYO8VmTtjv8ybedA7CESyaL3GubRfiLN/dwOKQQeFKvh1R0Jnp06dtPEXVKtWTXr37q1tzoMbfL0bNmzQ3htz5871bnSGbqkImNDi3NHQ5RTt1ZFEuf1Ix0A3cUIeRzqPnnrcb0gVad46eAZ56GZZxHOQ7jHCgZEOK6HqY8Gcg7J62XHjonhGcyPeh14dadLHkzTp4mr3UqyfgVVDY8fBFk1iGXs0qfJttAG/S5jiwufBdv/eM+15cuaUEWCcMDZzj+/fN6jCwYq32AoVSykxY9lWKw3JEFiNGrpZpk3crZ147bBkftmKth4pmKJImCi6+UzQQa4GRmiwxsvcGQd0issOFWT1m+SWr7+zdWYNzhh0UKiEpmEoqf3nn3/0jxlQ9YFOnlhfBeutBCUs1rZ48WKdQrHnbEDu3LmlQ4cOuoCbs4aC0YkTFRZYmAtNhNDZMrBD5kiYxFRN+SrO7boYUHgbxNL5SIrExRzrvQSmXDaw8Dt59NB1ncrAtMaBPZe17NYvMJyOhm2YmglrbPjesGosqkn8CqMsqdPFk8xZPaRoqTSaUOuRMOgvvM6CESasSbLQCPqWLDji3XbeLlHi6JIrXzJt2octS/ZETh11wv8Z/r/37ryoHVb37rpoHF/SShw7/P+WLJtOqtXOpn9XwbVs930MOihUwwUd+R3z5s3zHkVA5UfVqlW1q+lnn30mceM6v679xYsXOqKBQGPRokW6rosdFq9DL5B27dp9svOpoyDZE2vAwDffF5fuvcvpsatCbkWPzkt0eHrFlqCruPgYTHucPHbTCAav64JwuEvHqMSdW481KRWjF36FnB3czceJF03SGMEFuqciyEiTNq6xj6sjKsE5N8OZMOW1ef1ZzT/auumsBn++XSbx88OoQvKUscx9bE3YxHkkqrobQUm0aBEkUuQIRoBg+1miNf6rl8ZmfA4ENtevPtRS42vYX3ng/fiEEfBfv2YbifUJgQZGmarX9ZRKxg0BRrlCGgYdRAYkZ2LUY9SoUXLlyttyUbzx5syZU/M+smbNqhuafLm7B3zK4e7du1pJg6RW+3b48GFd28UOoxjIOalSpYouKoeqG6uN+WurdG5nW8iq94BK8uXXhfXYleDtDyu3ooQX0P66c/fAr3waFDBChSmZu3eeymvj4obkXWwIpB4Zd8hoxw6HL3bVKbPQGlT4F0YX9uy4KDu3nTe2C7LL2N4fCXEWBINYYTpnXmMz9lj0MDhVBQUEgw4iH7A8/ebNm3XEYcmSJRoM+AZrsSAQiBcvnsSPH1/30aJF0w6oeDPHqAk+Fsp1EWTcvHlTrl27plU0OPZNjBgxtIlYpUqVdG/FCMunoLMkGj3Bz33LawKoq1ysXrx4Jd+0nKNTP9DhhxLSrWcZl7wYY12cVHF/0eMzt37SO3EKOAR3587c0Z4uuj99W84a+5vXH2quDH7en5rOwu9ZAg83SZAwungkMraE7uY+uia1ohIoJI5kfAqDDqKPOH/+vLZRt49I7Nu3T4OIwEKQkj179nc2JLJGiBC87mLw9oCk0vGjtuvjqjWzyuDRNXWl0JAMya0tGkyV9att01jBOcHVERh0WA8jT08ev9DgA8vJ428J+TaY2gpv7JHwG1xKoq3EoIPIH/DngtLVCxcuaDKqfbtx44ZOj2B0A0mAaHeODaMXWJcFoxYoa8WG5eY9PDxCzB01vmdMtXTtsEiH61HFMHRMLV35NKTB9zJzyl7p9u0iuXP7iWb9j5xYV4MpV8agg4ILBh1E5CdbNpyRJrUn6ygB1G6QQ3r0KR8sygn9Al0af+y0yPg+zupjzJcPH1v7o11UXQWDDgouQt/YDhEFSMGiqWTzgQ7SoElufTxj8l7Jm+F3XbzNt0z74AD3VAiWmtWdLCXzDtWAA0PaqMjZsPebUBFwEAUnHOkgIn9DFv8P7efLvt22NR4wT40lxVu0KaCdKoN66gjlo0gQRaMzlJfaoZ8BEmJRJhqacKSDggsGHUQUIMhdWTjnkKCdtH0RN0DOR7nKmaRcpYwagFiVLIf+BmhvvXbFSVkw+6B23wQk7yFno3nrAsFygTkrMOig4IJBBxEF2p6dF+VvI/iYN/OANkCyQ8lfyTLpJEeeJJLNM5EuT++ITo4IeK5fe6QdG7Gy5oY1p7SDqk/JUsSSpq3yS/0muSRuPDfzbOjEoIOCCwYdROQw9+4+kVXLTsiS+Yd15Uuspvq+FKliS/pMCbRBFbZ4CdwkfgJ37eSIUQl790aMVDx7+kr3V6/cl/Poh3D2jm1vbD4XR7NLnzG+rg1SpmIGKV46jdNaxYc0DDoouGDQQUROgaBg87ozsm3zOdm355Ls331Z23U7UuKkMaVI8VRSzAgwipRIE2IqaazGoIOCCwYdRGQJvNVgESssXnbh/F1dZ+L61Qda+YK1Jx4+eKbtuzE9gzxUrFkRJUp4iRwlgo6GpEwVR5Knii0pUsaWlKnjSDJjHy1aRPOj08cw6KDggkEHEZGLY9BBwQUnPImIiMgSDDqIiIjIEgw6iIiIyBIMOoiIiMgSDDqIiIjIEgw6iIiIyBIMOoiIiMgSDDqIiIjIEgw6iIiIyBIMOoiIiMgSDDqIiIjIEgw6iIiIyBIMOoiIiMgSDDqIiIjIEgw6iIiIyBIMOoiIiMgSDDqIiIjIEgw6iIiIyBIMOoiIiMgSDDqIiIjIEgw6iIiIyBIMOoiIiMgSDDqIiFyAl5eX3L3zxHxEFDwx6CAiCuEQcNStMl7SxP9VapYfIxfO3TGf+bgnT17I30M3y4Y1p8wzRM7FoIOIKIR7+vSlrFp6XI/XrjwpRTwHyYzJe/Txh1y/9lCK5xoiXTsslHpGwPLmzRvzGSLnYdBBRBTCRY0aUUqXT6/HCRNFl0ePXshXn8+Qbt8ulFevXut5n3Cucc1JcvrkLX2cPGVsCRMmjB4TORODDiIiFzBtQRO59rS37Dz+ndRukEPPjRyyWWpXHPefXI9B/dbJrm0XzEciPX4rx6CDLBHGC5OBRETkMvC2Prj/eunZbZk+jhYtojx+/EKPR06sI182nq7HkL9wClm0thWDDrIEgw4iIhe1cskx6dhmnly+eM88865ESWLIkvVfStLkscwzRM7FoIOIyIVhhGPU0M0yZ/p+OXLwmnlWJHf+ZDJpdiOJn8DdPEPkfAw6iIhCiXNnbkuT2pOlep3s8vV3xcyzRNZh0EFERESWYPUKERERWYIjHURELuDRo+dy/epDY3sg14z9NWN/785TefXqjfblePUS+zfy5o2XoFAlQoRwEilyeIkcJYJEMTY390gSL76beCR0lwTGFt/DXSJHjmB+dCLHYNBBRBRCXL3yQPbsuCh7d12S82fvaGBhDzTQEMzRoseIrEGIR6Loki5DfMmU1UMyZvaQDFkSSPTokc1XEfkdgw4iomDo/r2nGlxg27PzogYbGMH4mHDhwkr8BG46UpEgYXSJEyeqRIgYTsKHxxZWwhlb2LBhdLTj1cvX8uzZK3lubM+evdTPd+P6I7lpbLduPtZeHx+TOGlMDUKyeSaSQsVSSb5CyTkyQp/EoIOIKJg4euialrYumntIThy7aZ59V4pUsSVH7iSSMYuHjkB4eNimQzTIiBvVCCoCn6r3+vUbuX3rsdy49tDYHsmF83fl+JHrcvzoDd37FvxENIKbfIVSSNGSqaVIiTTG15hYgx0inxh0EBEFIZSxItCYPW2/HDt83Txrg3VUcuRJokGGZy7bPlbsqOazQefe3Sdy4uhNOWIESVs3npUtG87IlcsPzGdtMDVTpUZWqdMwh3Y9dUQwRCEfgw4iIos9fPhcJo/bKbOn7pM9Oy+ZZ4035DBhpFip1FKtTnYpVTa9Bh0hAS4jyDHZtP6MbFl/VpfKR/6JXZJkMaVW/RxSq0EOSZ8xvnmWQiMGHUREFkF30DEjtsqQ39e/swgbpiWq18mmIwOu0CEUy+Tv2nZRZk/bJ/NmHtAcEbvCxVPJdz+WMvapzTMUmjDoICJyMlyEp0zYLb26LZebNx7pOax70rJtQe0OiqRMV4Vy3c3rz8qsKXtl1tR98uKFban9AkVSSufupaRIidRcbC4UYdBBROREF8/flS/qTZHdOy7qY0yZdOhSQho2yyORIoXXcyEFAqaFcw7J/j2XJUPmBNKiTQF/JYtev/ZQRg7eJGP/2upd4otRngEjqunHI9fHoIOIyEmQ29Cs7hSdSokcObx880MJaduxqDbjCqg7tx/LkgVH5MTRG3L75mNJnS6uNGmZT2LHiWa+wjnWrTqp3wtKa+069ygt3xubf+FjjDECj+EDNsq9u0+18uXHXmXly/aFteyXXBeDDiIiJxgxaKP0+G6JJlniLn78jIaSNn0881n/wzTFd23ny9QJu+XlS9sUhV2Jz9LKjMVNnVYhcvrkLSmZZ4iOTqBkt2jJNDLxnx3a1fTig191HxA3rj+Uzu3m6+gJoMpl+NhaxueIo4/J9TCkJCJysMnjd0n3Tos14KjXOJes3NomUAEH/PnbWr3QI+BIlSaO1G6QQ776prDEiBlF1q48KYvmHjZf6Xh/9FqtAUdWz0Syfk976fprGT2PrwUjFQGFpFkEY2On1ZfYcaLKtk3n5LMCw7VfCbkmBh1ERA6E7qGdWs/V46/aF5Zhxp171KgR9XFgIA8CuvUsIzuPfSd/Tagjvf6oJGUqZNDz6FzqLEsXHNE9lsN3c4skh/Zf1cfu0SNLrNhR9DgwqtbMJlsOfqtBzZ3bT6Rq6dFy7Mi7PUvINTDoICJyECy69nnNSVqhUaFqJvmlfwXzmcB79vSl7iv+L4vu7eLGs+VyvDSrQhwNLdLRVwSQ9AmD+6/TfZESqRzWdRSLzc1d0VwDD3RD/Z8ReJw64XtXVgq5GHQQETnI3On7tTNnAg93GTmxrkOTIsOZF/cH95/p3u6keWFOmiKW7h0N66nkzJNEvyd0GcUUyMa1p/W5Rs3y6t5R0G0VgUe2HIm0UqZN0xlabkyug0EHEZGDTBi9Q/fNvsov0aIFfkrFpyzZE2o/i6hR31a+YGRlkxkAZMmWUPfOsGTDV7L39Pfi7h5J+vdcpecKFk0pn1VIr8eOhMBj7LQGWk68a/tFmTpxj/kMuQIGHUREDnDm1C3Nq8Doxuct8plnHeffOY1l0/5vJLOP4GLyuF26UmyixNG18sNZUJ2CIGD+rIOyfvUpPfdTn/JOa+qVMnUcad+5mB4PMadyyDUw6CAicoCL5+/pPqERACA/wdEwtZEh09sGWlgork+PFXrcom0hp/e3uHb1gXQ0E2QbNs0tufMl02Nn+aJ1Ad2fOnFLLpy7o8cU8jHoICJygOfPXune5/SHszx//kq7nCLBE9MuLdsVNJ9xDvQIadlwmjY5Q7lu74GVzWecJ248N83tgI3rzuieQj42ByMicoADey9LiTxDtfPo6Vs/aQKmMyCx8tuv5sqkMTs1b2Ttrq8lddq45rOO9/r1G2n3xSyZ/q8tt+LX/hUkSbJY8uD+U7l/75l2F33y+IVO84QPH1aiuUWSZCliSbFSaXSaJDCa1Z2sUzo9fisn7TsXN89SSMagg4jIARAMpE3QU5tlzVr6hXYJdTSMOHRqM08DDhg9uZ4uGOcXKEPt8s1CQRpGzz8q+mk1W/QcQbOugEBrc/QTwbL2AVWn8jhZtfS49BlUWVq2LWSepZCM0ytERA6AFuSly9mqOf4avFH3joSW4fWqTvAOOHAh9mvAgWClYfWJutQ8Vnod1NdvyZmf1/rXPHoLuSPxE7hJxiweUrRkaqlWO5s0+iKPNG2VX1q0Kagr56L7atRoESWCEXgEFLqdHtx7RY+Tp4itewr5ONJBROQghw9claI5B+vxxFmNpOL/MutxQOHjoULl76GbzTNvpc8UXxtzRYgQVstMkbyaIKG7XvjfXyq/788r5fdeq81HtrVaMBrzKd2+XSibN5zVpNEWRjCBYCNGzMifXOMFoz6vXr2RiBEDvorunOn7pUWDqfp9HTzfJcDru1DwwqCDiMiBfmi/QEYP3yIxY0WReStbaIfNgEAuA3Ia/AtBR9/BVcxHouuy1KowVteB6dy9lDYXQ9vxvAWTm68IfjAyU7bQCNm3+7K2Xkd5LrkGBh1ERA6Ehl01yo2RXdsuaOBh67CZ2HzW78aO3CbftZ1nPkLL8dTSoGluTdZEfwx7i4w3b7x0vZJbNx5pYicqWeyrtJ4/e0dK5h2qeSaVqmXWxdWc1VvDUXBJQt7K+FHbdW2XjXvbS9Lkzum2StZj0EFE5GAPHjyTmkbgsXvHRV0FFsvO+7evBapGZk7ZK3HjuknRUqn9PVVx7+4TqVJqtE7RYDn6NTva6dcS3A0fsEF6dF6ix1PnN5EyFW0L2pFrYNBBROQEKCWtXvYfnSIIGzaMlnx+172UdvZ0NnRHrV1xnJw9fVuXjF++ubWkSuO8slpHePHilfxkBBujhm3Rxz/8/Jl892MpPSbXweoVIiInwKjCgjWtpHnrAjoFMrDvWimRe4iOfjjbzCn7NOCIEzeaTFvYNNgHHJcu3JNKxf/2Djg6di1pbCX0mFwLRzqIiJxs3aqT0u6LmboCLXIqatX31JGPDJnftjV3JJTXojT2f7WySaLEMcyzwQ86q/49ZLP82Xu1PHr0QpudjRhfWypVe3f5fnIdDDqIiCyA6ZZfuiyVf8fu0nwNKF8lk3zzfXGnr2MS3GAqZcr43fLnb2vkyqX7ei5TVg/5Z0p9SZ8xvj4m18Sgg4jIQli8bFC/ddp/A70soECRlFK7QQ6tMIkdJ5qec0X43ufOOCDj/t4uF8/f1XPoMdLll8/k8xZ5te8IuTYGHUREQQB5DIP724IPTDMAun2WLJtOqtfJJuWrZBZ390h6PiS7euWBzJ91QOZO3y+7tr/NZ0HOS9uORXSFXFf4PslvGHQQEQUhNOtaMOegzPh3r2xe/3Y1VaxdggZeBYumkkJFU0ru/MmctoicI+GScu7MHdmw5pR2Fd303gqxeQok0/btdRvl0uX6KXRh0EFEFExg9AMJoOjPcezwdfOsDdqA58qXVAoWSSlZsifSNuhYXTao24NfuXxf9u68JPt2X5K9u2wbmpH5lDlbQqlRN7uu05KM66iEagw6iIiCIVzMN607LRtWn5b1a055J1z6hOmYNOniagCSPmMCSZkmjq4eizVS4nu4a48OvCYwHj9+IdevPjC2h3LN2F8z9nh88vhNDTauX3tovvIt9CVBYmj5ypmkWp3sTA4lbww6iIiCObxNo+/GhjWnZf+ey3Lk0DU5ZmwoM/0YlOfGjRdNAxD36JFk26Zzer5GXU+dvgkXLoz2EEFCKzZU1WB1V4xUIMhAcPGpzwEpU8eRHLmTSM68SSWnsc+aI5FEjRrRfJboLQYdREQhEN66MR1z5OA1OXr4uk7HYHRERyWuPZKHD56Zrww8jFwkMAIXrGLrkSi6HidJFlM8cyXRYAMVKER+waCDiMgFPXnyQm5ce2hsj3RaZPvmczJyiG2JfJSovnzxWl6/9tKAInyEsLqQHEpWsceoiEdCI7gwgwx0Ng3sNA0RMOggIgoFMCJSJMcg7fp54f6v5lkiazF0JSIiIksw6CAiIiJLMOggIiIiSzDoICIiIksw6CAiIiJLMOggIiIiSzDoICIiIksw6CAiIiJLMOggIiIiSzDoICIiIksw6CAiIiJLMOggIiIiSzDoICIiIksw6CAiIiJLMOggIiIiSzDoICIiIksw6CAiIiJLMOggIiIiSzDoICIiIksw6CAiIiJLMOggIiIiSzDoICIiIksw6CAiIiJLMOggIiIiSzDoICJyQffuPpFB/dbJulUnzTNEQY9BBxGRC+rZbbmxLZMa5cbIjx0XyYsXr8xn3uXl5SWTxuyQSWN3yps3b8yzRM7BoIOIyAVFc4toHon8NXiTNKk92Xz0FgKOTm3myTet5sg3LWfLiaM3zWeInINBBxGRC2rSMp/kzJNEcuROImHChJGL5+/q+SdPXuoeRgzcKONHbTcficSNH808InKOMEak62UeExGRC5o/66A0q/t2pOPEte5y8thNqVh8pHlGpOuvZaRj15LmIyLnYNBBRBQKrFh8TOpVHa/HyVPGljBhRM6duaOPMRqyZMOXEjFieH1M5CwMOoiIQomd2y7I5zUnyfVrD/Wxe/TIUqu+p3TsVlI8EkbXc0TOxKCDiCiUePbspexC4FHrX7l396kUKpZKMmZOIDeuPzQCkUdy09g/efxCXr58Y2yv5fUrc//aS8KFC2NsYSV8+LDiHiOyxIodVWLHsW0xY0Ux9tEkUZIYkiZdXEmTPp4kTBRdc0mIfGLQQUTkYl6/fiMnjt6Qvbsvyb5dl+Xg/ity/swd7xEOK0SLFlFSGwFI6rRxdfqmQJGUki1HIiNoCWe+gkIjBh1ERCEYemucPX1H9u5CgHFJ9hjbgT2X5enTt1UqPmG0IkmymLrFT+AmCTzcJb6xxTOO48d3F/fokSRc+LASIUI43XCMUY43b7zkzWsvHfm4f++pjpTcw/6O7fj2rcdy/uwdOX3ylly6cM/8bO9CIJK3YHINQIqVSiO58iblaEgow6CDiCiEeXD/maxeflyWzD9i7E9oEPA+TINkyZ5QcuROKtlzJtIRh2QpYkvCxNE18HCm589faZLq2VO35PDBa7Jj63nZufXCf77OpMljSY262Y3NUzJl9TDPkitj0EFEFAJg9GDZoiOydMER2bTujLx69bZ7aNiwYSRjFg/JkSuxeOa29ebA40iRgk81CkZkTh6/pQHIhtWnZMXio/Lo0QvzWZH0meLL5y3ySePmeSVKlAjmWXI1DDqIiIIpNPSaMmG3BhoH910xz9okThpTylfOKOUqZ5L8hVOEuAs1klrXrjipPUSWLTwiDx8+1/Px4rtJ245FpUmrfOLmFknPketg0EFEFIzgLXnz+jMyatgWnT7x+RaNRMzyVTIZwUYmnTpxlXwIBCAzJ++VIb+vlzOnbus5VMd07lFKmrcuIGHDsnm2q2DQQUQUDDx58kIvvAg2jh2+bp4VTbas0yinlKuUUUc3XBmqbhbNPSyD+q2VA3ttIzuFi6eS4WNra+IrhXwMOoiIghDKWIcP2CD/jt3lnWiJqpFqtbNJi7YFJWeepHouNMFlCWvC/NR5iTx+/ELc3SNJ/2FVpXaDnOYrKKRi0EFEFARwMUWwMfT39d6LsHkkdJemX+bXZMr4Cdz1XGh24dwd+brFbNm49rQ+/m1gZWnVrpAeU8jEoIOIyEJ4y501dZ/exdubdaHSpGPXElKpWhYd5aC38PPq3mmxLs8P/YZUkeatC+oxhTwMOoiILHLqxE35ru082bDGdueOxlxde5aReo1zOb13RkiGy1QPI0jDUvww6t+62tuDQh4GHUREFpgwert8//UC7eiJxl0oC/22a0nt0kmfhkvVD+0XyD8jtkr0GJFl2+GOGrRRyMKgg4jIiV69ei0/dlwso4dv0cdoAf7niGqSPmN8fUx+h06nJXIPkeNHb0jDprll8Oia5jMUUjDoICJykrt3nsgX9abI+tWn9HH7zsWlW88ynEoJhLUrT0rN8mN0tOj41R8lZqyo5jMUEvA3n4jICU4cuyGfFRiuAQe6hY6dVl96/FaOAUcgFS+dRlKkiq1t4BfPP2KepZCCv/1ERA6GUs8KRUfK2dO3JXnK2LJiSxupWjOb+SwFBrqwVqmRVY9XLzuuewo5GHQQETkQlpT/vNa/OrWSLkM8Wb29rUuuoHrzxiOZNGaHnDx+0zxjnayeiXSPoI5CFgYdREQOghS5Tq3nagvvmLGiyJT5TXQNEVf0ZeNp8k2rOVKx2EhtdGalGDEi6/6RuUgchRwMOoiIHGTsyG0ybdIezduYMLOhpEwdx3zGea5eeaALph09dE22bjwrt289Np9xLvfotgs/Pt/aFSf02Cr2JfGjRGW5cUjDoIOIyAEuXbgnXTss1OPfh1WVwsVT67EzDe6/TrIk+00Su3WXwp6DpFKJvyVj4t5aMXPntnODDyTGVq+TXY/tzc6scmi/bTG4DJkS6J5CDgYdREQOMOavrVpRkTNPEl07xREm/rND2jSdIQ/uPzPPvIVVaX/tusx89BZWap0384AGIBgBcRYsN2/PVbl65b7urbJp/Rnde+ZOrHsKORh0EBEFEpJHESBA247FtMLCEX7vuUqna+zrjvi0YvEx88imVv0ccuVxLxk3vYHmkRw/ckPGjNhqPusc8RK46R5JpVbZt/uS7NhyXqewqtW2jbRQyMGgg4gokJbMPyz37j6VZCliSaVqmc2zgWfPXXj44L8jHRhZsdty8FsZOqamRIoUXstJsSQ+7N5xUffOEj++rQ35rRvW5JHA0D826L5KjSySMFF0PaaQg0EHEVEg7dx6Qfcly6RzaPOvYqXS6N63lWfRkRPqf55LW6r7fI19TRJnJ5XGjmurzEF5sBV2brsg82cd1OOWbbnEfUjEoIOIKJAOmomNnrmT6N5RUqWJq3usTvu+m+boQrnKmXTv09XLthyLBB7OHQnAyAq8evla9850+eI9aVR9opYlN2iSW/IUSGY+QyEJgw4iokC6f882/RHbwT050qS3BR23b/13JOGWmUcRL74tr8Kng/uv6j51Otu//xQ0+Nq13TZa4x9JksXUKY5c+ZwbAKAPSP3/TdDcEc9ciaX/sKoOy5shazHoICIKpMiRbXf8SCh1pFSpbUHDXV/KX1GlAm/evLtm55XL92XVUlt78OLm9MzHHD5wVYrlHCzlCv+l68X4BxJW9535XmYtbWaecbw3b95I6ybT5ZARSMWOE1UmzGxk/LwjmM9SSMOgg4gokJBACqcc3BI8utl5887t/450pDOXxt+z822yKKYefu+5WgOS7DkTS96Cyc1nfIeyW5TWYsl4/Ft7wy//CB8+nJbPOsODB8+0pfyiuYd1ZOOfKfV1dIVCLgYdRESBlL9wCt0vWeDYVU/d3G0dN+3TNz6VrZhR971+XC5/D90ss6buk3pVJ3iX7rbrVPSjUxAIMrq0X+DdA6Rc5YzBqhoEUz5lCgyXJfOPaO7I6Ml1vRNrKeQKY/zivTs2R0RE/nLt6gPJnPQ3PV6zo52OMjgCphZ+7LhYq0Q6dStlnrV58eKVNK75r6xc8m6/DvilXwVp27Go+ch3o4Ztli7f2DqozlzSTCtvgovli45Kq0bT5OHD5+KR0F3+nfu55HBwki4FDQYdREQOgERHXCwLFk0p81e1cNqUg0/oOIoGYAtmH5QnT15K0RKppWb9HJ+8QK9deVJqVxyr+SDfdikh3XqWNZ8JWsiJwfQQ2rsDurtOmtPYCDzYj8NVMOggInKA40dvSNEcg7QVep9BlYNtH4k1y09IoxoTjYDllRQxghQkgSIvI6hhxKbz1/Plwrm7+hgdVgeNqs6kURfDoIOIyEH+/G2N/NZjhR4PG1tL6jXOpcfBBaaBPFP1k5cvX2t+BEYRokUL2pVajx2+Lj/9sMS74iZuvGjS689KUrOeJ8tiXRCDDiIiB0EORsfW87yTOdGavP7nufU4OLh/76n877PRuuT+iPG1g3QU4eL5uzKgz1qZNGanJrXC5y3ySo/fyknMWI7td0LBB4MOIiIHQuDRodUc+XfcLn3c5tsi0uWXMhIlCqcJcLnZuPa0jB6+RZYuOOodbJT4LK0mv2bOllAfk+ti0EFE5GAIPHp0XiJ/DbKtDpsmXVwZNra25MkfOlt3o6PozMl7tWIGq9/aoZV55x9LS8mywadyhpyLQQcRkZOsX31K2jabIVcuP9D8hIbNcsvX3xXzXlPFleHSgm6nWJp/8rhd3v1AsDBdjbrZdSVcz1wsgw1tGHQQETkR8ii6dlioF19A8FG1ZlZp37mYZMvhmH4ewQV6h2xef1aWLTwiSxce1UXa7NB4rNlX+aVx87wSN95/14uh0IFBBxGRBY4euqbVLXNnHDDPiLYpRwBSpUZWSZQ4hnk2ZEFQtXLpcVm64IisXnZcG3rZYfl9lOU2+iKPVKia2dcl+il0YdBBRGQhLKo2sM9aDT5QumqH/AYEH8VKppEMmRNIuHDBb5UKfL3Hj1yXvbsvy96dF2WfscdCbPbF5wDrxXxWPoMRZGTSXI3oAVjPhVwXgw4ioiCAEYKFcw/JnGn7ZcOa096VHODuHkly509mBCLJJV/B5FrVgf4VVvatQLfTc6fvyL49l2TfLiPI2H1JDu69oovDvS9p8lhSoUomXb+lQJGUHNGgD2LQQUQUxK5feyjzZx3QxNOtG89pQPI+N7eIkjJNXEmVJo4moiZPFVvixo0mMWNF0SXmY+g+ykd7b+DtHqMSjx+90M958/ojuXH9oR7fuPZILl24JxfO35ELZ+/qOd9g8bWsngklR+6k4pk7seTMk1TSpo/HRl7kJww6iIiCEZTbHjt8Q7ZsPKMByN5dl7Q1uF/fqiNGDKcjDWHDhZWwYcPIGyPIwLQI2rNj8w/kZGTK6qFVJlgHBXtM/XAkgwKKQQcRUTCHKY2zp2/LqeM35dSJW7q/cvm+3Ln9RLd7d55oLwz/QEAR38Nd4idws+3ju0mipDElWYpYktzYkqWILQkTRw+WuSUUcjHoICJyAQhM7hrBx/17z+T1qzc6jYINQQNGJsJHsO/DSdSoEXRahlMiZDUGHURERGQJjpsRERGRJRh0EBERkSUYdBAREZElGHQQERGRBUT+D2bGMVG/tajZAAAAAElFTkSuQmCC;" parent="Ndzt5HTPb4c412SwF74z-19" vertex="1">
          <mxGeometry x="14" y="224" width="318" height="195.74" as="geometry" />
        </mxCell>
        <mxCell id="Ndzt5HTPb4c412SwF74z-22" value="Disadvantage of chaining:&lt;br&gt;Searching of element = O(1)&amp;nbsp;&lt;br&gt;&lt;span style=&quot;white-space: pre;&quot;&gt;&#x9;&lt;/span&gt;Worst = O(N)&lt;br&gt;To get rid of this most language has loading factor = 2&lt;br&gt;&lt;span style=&quot;white-space: pre;&quot;&gt;&#x9;&lt;/span&gt;means if chaining goes above 2, rehashing done&lt;br&gt;" style="text;html=1;align=left;verticalAlign=middle;resizable=0;points=[];autosize=1;strokeColor=none;fillColor=none;" parent="Ndzt5HTPb4c412SwF74z-19" vertex="1">
          <mxGeometry x="14" y="422.74" width="303" height="84" as="geometry" />
        </mxCell>
        <mxCell id="Ndzt5HTPb4c412SwF74z-23" value="" style="shape=image;verticalLabelPosition=bottom;labelBackgroundColor=default;verticalAlign=top;aspect=fixed;imageAspect=0;image=data:image/png,iVBORw0KGgoAAAANSUhEUgAAAkUAAABXCAYAAAAK/zF4AAAAAXNSR0IArs4c6QAAAARnQU1BAACxjwv8YQUAAAAJcEhZcwAADsMAAA7DAcdvqGQAACeeSURBVHhe7Z0JvA3lG8cfS8i177tkyRIhhL9sSbYIRQqJokKLSChCWbJnSwlZQipKlGSnLNmz77trvdd6Cf3f3zsz17nHOTPvLOd2l+f7+RwzZ+6515yZd9739z7bm+RfATEMwzAMwyRykupbhmEYhmGYRA2LIoZhGIZhGAGLIoZhGIZhGAGLIoZhGIZhGAGLIoZhGIZhGAGLIoZhGIZhGAGLIoZhGIZhGAGLIoZhGIZhGAGLIoZhGIZhGAGLIoZhGIZhGAGLIoZhGIZhGAGLIoZhGIZhGAGLIoZhGIZhGAGLIoZhGIZhGAGLIoZhGIZhGAGLIoZhGIZhGAGLIoZhGIZhGAGLIoZhGIZhGAGLIoZhGIZhGAGLIoZhGIZhGEGiFEXnz5+nyMhI/R3DMAzDMEwiFEXLli2jfPnyUYYMGej999/XjzIMwzD+XLx4kX766SeaN28eXblyRT/KMAmXRCeKFi5cSNeuXZP7gwcPpoEDB8p9hmEY5i7nzp2jUqVKUaNGjahx48ZUqFAh2rFjh/5ThkmYJDpRVKBAAX1P45dfftH33HHnDtHVS0QXzhCdOU50/ADR4d1ER/YQHd2nvT99VMy8zhLduK7/EsMwTBxl/vz5dPz4cQoLC6Ns2bJReHg41alTh6KiovRPMEzCI9GJokqVKul7JK1ES5cu1d85I0oInLMnhfDZq4mhyHOaOPrnBtG/QijduU10+x/t/fUrRBFCFJ08RHRoJ9HlCPGZf/U/FAJuir7r0kVNqOEccX5nThCdPy2OX9DOB2IuNsE1uS2uCcMwcRvDol65cmXavXs3Zc6cWYokuNMYJqGS6EQRzMGIJwJlypSh5MmTy327/HOT6NQR8RIC5wrEjQNxcU4IlcO7NBHlFTgviB5Yp04cFPunNKGGc8T/czVSE0T4DCxXEHPhx0QHeNl7gQZBCOGH6wQRiBesZ0f33H1vvCLFOYVSIAYC/x9ELa4HhCOuCSx5uBa3hJCNTXAuV8X/i3uBa+R7bXCPcG6wMMb2NWISL+nTp5dbJKZkzJiRnnvuOfne7USSYeIyjkXRr7/+SjNmzIieTcQXkiVLRjVr1pT7GzZskFu7XL+qWXuixNYLDAuOmwEP1hcMnHDTYZCHdUoFiDmIAAzGEFFRHtxOWJ8ihBCD6xDCT+U6XRDnDoEIQXDzhn4wREAI4ZpDbEDU4rpBOOK6wZKHa3EMolL8DEIylEIEfx/CB9/9jCFO/QT27VvauaHN4XOHxItdsKEH9/1GlCbsIZbPh4v2LCYZF8QWFlj0A3FBpMIijOcNfQjaLCZEeB3bL9rMYa19OznXpEm14SFlypRymyNHDrm9etWjjo9h4iCORBEEUd26dally5aUPXt2unxZ9OTxiBo1asitE1GEDhIWFlhBvAQWnNNHnHWy6PBO6GKIXHTScPHBqoNO32lnj0EdYuPiGf2ATSAI8F0gTLwG1h8MHBBCECNW9/CmLp4gNHGNvQTiE2IIf9824t4YLlhYBv9r0FZkG9TPyex1RLQNuHLRVuPCuftjTBIMl/hJMVGAsIdYvnRePP9CDEWKLSyweF7xGQil2BapuOZXRBtG28RkBs8b+hC0WUyI8Lolru8N0c5wrXGumKTge6laQUuUKEEpUqSgqlWryvepUqWS2/g2EWYYOzgSRX369NH3xIN55Qq1aNGC7sR2cIoLSpcuLbfr168XnYv66I+OHx2gG+FhBgZKDNp2wDlBQMCa4Aniu6HTdyL80PniXJy4Ev3BwIRB1CvxiWuLAQQDh10wuGBQwXXxAgxMp8QM3guO7xfP4H9UcuvaFe17wHqF64MB2Yo7op3ClWtYNc+K9g4x/l+D5wdWFVgq0YZxjiptD5+BUIJIxXeJjXg5CDAIobNCUNu5dngu8b1gBYWly4pHHnlETngHDRok3xt95T//KKoqhomH2BZFSMk0LCyIzYGJdcGCBTGEUlwHcUXg9OnTdPKkGKEUkFYGzOpDJIgMronZn0qHBQxB5IUI8Qcur1NCGKmKLSMmx2swu3UrjDCIeHGdYEGTotghGFMgNjEweQkGY7hPYgu0OwiIcPFdXLlbxfWAoDsuBnivBKcdcD8M9yUsPrCquAHfBVZOL1zQwYClGgLMrZCEpQvtxmpOCEuRwYkT2owta9ascsswCRHboqhbt27RM4ZevXrRhAkT5P7HH39Mc+bMkftxnXTp0km3Hzh8WG3KjpgCu4PzbTFt/GvTGpo8bRT9/MtsOnFSjCIKoMOyci1ArECkhUIQGWDmD6uGFRhYEJMTKo6JgcYpiE/y0t0Jq4B0UzoAggoZf6FAuk9C7MXGY4/vAKuQWwERA/F3ITjR1qwGaa+AlUvGcTlxX5qA5xICHLFIXoM+CK48r4CIs/P9jx7V+q/cuXPLLcMkRGyJom3btkXX9XnrrbeoU6dO9Morr9Drr78uj7Vp04b27dsn9+M6xoONFFMrYCWy66LYt38n1W9Smpq1qkL9B71Nb3Z9nmrWK0zzF87SP2GO1czfiUhzAgZxs1k8BgE31hMV4HJBkKtdMMBioPX6OsEiZjcYHO5Ary1E/iBQW9WyZxd4xyEuIQpDBa6P01g0VdAmEIAMK1eoQHvDtfIyZgoTD8Q1eQ3aJay8Khw7JhqYwL/WG8MkJGyJouHDh8vtU089RSNHjowOvMNxuKQQgNe2bVtX8UX4G3///bdcjgP1MBYtWkT794teLEQgG80KmKztuM2uXr1CL7atSXv3/00pU95P/6tYi4oWKUX/iF6yZ5/2dOuW9ciFASJYQCSOy3NSAPcC1qpTp51PiSHAkOESCAiE2BBnCHK1G68BIasS5+IEuElUwUAM60FsADeQ1+D8YVHwKtvSDAhwCIBQAKsqrEOIEQs1Ush75E6GuPLaouULrLwqAs6wFLEoYhIyyqIItSpmzdKsHF27dpVbA4ijb775RqZurl69msaMGaP/RJ1Lly7Rq6++SpkyZaKSJUvKtHmUl0cFVQT84f/3EqzpA4xaHGYghsIOv/z2HZ07H065cuanpQv30rSvFtOc6WsoSZKkdFVMzfbu+1v/pDnBYovkcQWRhoDINu3rSGtV1doFaMbsz/Wf2AODSaDZJDrSYAMYXKznzp+RW69A2r4q+G9DEePki6r10I51JTLyIt1w6Xux216tgNUyVG6/QKCtedhsJPh7CKKOTXDNYIlxA84bwfShBnFKZiChxuiDWRQxCRllUTRlyhTRWd+g4sWL0xNPPKEfvQvSNwcMGCD3e/ToQQcPHpT7qrzxxhs0ceJE+X9AXOXPn1/+zcKFC0uBlCZNGv2TzkBpehQdQ9wTgqsPHdJ6gQceeEBug4FOKZiVJBgPFSlJmTJmpbat36acOfLIY2FhaSh3rvxyP1wlUEcQbCBS7Wg/G9eXVv+5WO7fvn2Lps6wL1YNcC7+LiOzGX3v/h2pQtXs1P3DdvoR90CEqA6WuEahjLcCqtlGVuLsytXLNGhYdypXJRuVqZyJSj2Wnj7o+7r4rs6UAWJ+vALCNzaDuAEsOXbd1VYgMNwuuP5uRX2Ey7lcbAWgw9prlqqPitYgderUlDdvXrnPMAkRJVEEF8znn2tWBlhzkiRJIvf9efvtt6lixYrSBQaRY6dDwe/cd999UrTAaoQAaLjR9u7dK9fggVByyvbt26W1CWKuWbNm0fFEEHhY5NAMdNB2B9eSJR6lv1afkaLIAEHX1xDdKUiXVquobQXEmH+MCDoulcyTLdvW07gvtcVuhw+aTsMGTqUBfb+Q753ib/HQv849/LF2Kc2YPV7uL1+ltrbc4qU/UuWaeemLSUP0I4EJ9n/6YxWDhLbZo097atm2FkVEOIycFljFCVnF+ISfOUnNWlYR3/tTugA/pQBu1m++/ZwmTtHc1U7wKrZInlKQxxiJA90/aCfds16j6h5WAdmHqm7U9X+tpPadnpFtsViZ+4Wwz0F9Pu4krZ5OQEC6mdgwA/cwWIzVb0vmUdnKWWjmt+6eaV/MyoHs3LlTbosVKxZd1JFhEiJKrXvmzJkyrgdLYqCqKVaaD/RCUceXX35Z/g5igX788Ue5rwL+DwTyPfvsszHSQN2COhvVqlWT4gqzHF9q164dVOAZOO3Q/Fm2cqEc9JIlS06FCxbXj1rjXxROxfcPAfZhP1ga7lCtGo2oUYMXqHHDVvRomcr6J5zhm2oMvRusYN3s7yfqe0QjB8/Q98xZs3YJnQ4/ToOGvUdnzgaP3FZ1oVlV9N67fwfN/u5L+mPdEvr519n6UftYWTTMyitAmCHGbPfebZQ5UzYpXLesjaD+vTVBOeyzD+jmTYUbHgDV4FkzMCibWQMhfOfMnUQTvhqsH7mXo8cO0sJF39GkqSPp+3lf09IVC4RgXyfj7syAmPDK0mflGjI4dGQftXrlSfp92Y+yLd4Us4/z4kJOmzlWJko4jZVUFfL+mMWHfSCe74jI8zTvZ7XnC21t3BcD6Yl6D1HzVlVlIog/ZhmFhiiC9Z5hEjJKoqhDhw5yiwBhFGqsX79+0Bcy0cqXLy8//+GHH8oBWgVYgpAmD/cZ6gedO3dOChqVoGQzIM4QP3T//fdT3759Y8QQwSJlxW0POmYMAO07NZT7cGN9NXWEjB1Rwd9lpXI5kf6/Y9cmIS5TUe8eIy2Fnyo4F2NckJaIABYExDFhFgu+nbaaKlfUllSxIrkQiwbbd2zU9+5FRaSq1IkpWKCovgeLh3N/E6x5ZploZvFE+w/sEmJ5gdwfMmCKFK7p0qan5599VUxA7hOCKIoOY70GB3iR6SYHcxNjL+LmwIWL9/rXzl84S0NH9qLqdQpSpy7P0ceD36FuvdrQK280oCYtKlLZ/2WmlzvUowW/fhtU+DnUgzEIJtwDMWXaKGmlq1CuGk2duJgW/biDxo/6QfQdYbR2/TL65lut/IhdnNQUMhPT165dFf2jNju4qliHARawoaN6CuG3lzZsWkUt29UKKEyDJU1gUgmKFr373DCxg1sXLmMPS1GEWByj08qXL580n5q94KKaOnUqhYWFSffX7Nnqs3Dc/LJly1LOnDllgTDUE4JLDa+0adPKrDdVkWVgCILr16/LGkuRkXen9ggKDyW4bl99PYJKVkirH9EYPb4ftWhTPehg4Iv/82BVHwYictTYj+R+x/Y9KU9u85gpW4hzMQRAMPfMseMHhbC9Lq57UipRrIx+1BrfWbiqezEYKnEYsHq+0Ow1uX/TTNUoYDbwBrtOYN+BHXJbuGAJqv54XbkPoqKuR3eEqVLeL7dOcGtpsQquNu4T3MX+DBjSlcZ9qcUYFipYnKpVqUulS1Wk3LkeEM9zCik+Vqz+hTq/25zqNXmE9gRIPrAjaIKBpTBUMZ6VyMgL9L+KT1DhQsXpqVqN6Q3xHAFMNpxg19oMazBqlQVj3V8r9D2iOdPV+jBY6ADuQ4b0mensuVO0aeuf8pgvwSYUBw5o6ZZW4QaMN+D5RxwvxlxM5I0kJyb0WIqixYsXy9l/5syZ5YMBM6rZ67fffpOziXfeeUf+/meffSa3qkD8+IOBHtkPW7ZssW05atCggXxhEMyWLRu9//770WIIsx8jCy0UDBjalT75tIv+TqNH16EUljqtdJnMnT9NPxocf1Fk1cHOmz9dWhcQ6N2+bTf9qHcYA20wTwJcECBD+kxihh3TXRmM0+EnaMr0Ufo7orKlK+l7gbEa7FWzr9Kl0wZ1DNBucDp4583zoNymTRszA3LhojnSopgmLF10cL4T3K7GYJUEZwg3uIT9SX1/mL5H9NtPO2jyhIX0w8w/adXiQ7RtXSSNG/k91XmyqRRIBw/tpmeaV6Dfl83Xf0PDixIAKOWgSoO6z4t/kwiBtp22bl+vHRSUL1tFbnGeTjATxoGwEvUbNq6S24oVath4xrSc/hzZc0u3IMiUMYvc+hJozon7bIiiXLlyyS0THCTx9O/fX6kGXiDgwUDmNUJREFICjwmKI8cWGGMRclKhQgVpTFBh4MCBspizm3I8cQVLUTRvnuYKwU2CsFClVatWcoslQeASUwFWnT///FNap9Awzpw5I2tj7NmzRwoiWJ7sBlzj8wjUhrALDw+XN8/XL27VcJMpORgD89vvc/U9otpPNKb922/Tqy+/Sy8+rxW7XKbP3szwF0VWNYEmTRspt82atqMIMePdsWszHTl6gG64tIaokk8f6CMvXaSPBrwpY6kQVwJ3Icz1MP1je/zEYVq3YQWN/WIANWga06JkVTvKylioaiHBgAzcWoqcxp3BwvLjt3/R2BF3K8FjADJispo+00apjlYw7A7G/qh+r0CBt4UeLCa3VSrXlltfUqZMJQRREyGMvqOf5myUliRYF9/t0VoKZAO3Tdbu7yNTtPYTz8h9uJsM4D4DRnuxS7L79B0F0Lat4tQ2bdEsPA8XLyu3Kly+rP1RtC0kfECQo3aaP/79DYB13VgZ35jsMsHBNerduzfVq1dPP6IOxrsqVarIMQvjoWEk8I+HDSUYg1euXCnHboSxWHHhwgXq2bOnzD5fsmSJfjT+YjnkFylSRK5xhsrVdsDvjR07Vr7sCBk0BHwejQEuNKR/4m8he8yrNXcQX2Rg5Y6z06H50++DsVS/TnMaNmgajR/1ffTg8VDhh+UWQZxW+I83dwJ0Wga79myj3Xu2ir0kdPbcaapUIzc9/WxZqlG3EBUrk4qq1ykks7vc1MFJblyPIOdRqGAxerLmM2LGcJumzhhN7V6vL+NKkGoON+LD5dPILeomwYU4bFSv6KwrAPeKFYE6bicYcUw3XVqK3BSvhDDKnu3u7Bs1rjZt+UPsJaFWLd7QDjrEpqc5BvJ3Fa+zYTHy5aoeXZw2TTq5DQaehXmz1ksX4uXLEfTDj1P1nzgXmwZOYnn6fziOenYbRs2b3u3vduzcJLdZMmtLA9nFjpZSCTCP0n1cD/rExZmBmK/lqxbq7zTL3nDRJwUU3AHuuW9/iYEy0P1m7rJ582a5RdYzrDyqIJmpUqVK8vdQggYGieXLl8uf4bpjLI0NIIoM8uTRSsqY4eu9gbcovmMpirp37y6VIG6WXZCW/9prWtxGXMI3u83KHXcfRIDDOOVaNRvS6GGzqPHTLaXYM9h/cJfcZs9mvYbQfX560sxwsHyl1vFVeqwGFSmkCS+46pIm1X7p6LEDMrvr1Y4NHZk5k4vLFt3BB7km+J6ff/aDdI9AHGkuosAfzpIlhzjXmjTgoy9o0ufauUNMWeKVKNIVHqwUbvDKYgyLGuoTgZde7CwGvYfkvlPciDWf5mpJoEESlkIAF6AVqVOHiclDM7mPKvAGAbxytnBiKcuaNQe90qYLpU+fUT9CMhgclH/0cbm1ix1RFKXQFLOK5wZAQK9cvUhaXRHYfulSBF26HEkHD+2hJct/ptHj+1Pb1+rTY9Vyys8bzPp6ha1MVP9J7ZEjHhbCSmBEREREV/4GKHQJy5FRFy8YuKaox4caeogjWrt2LTVs2JA2brybdIKSN7GxjJax8C+W8fIdt4LhK5qNVS7iM5aiCKhcmPiEYY0CVqIoibhCqSxiXXfv3S7rtags+Ao3kjEbrlrlKbk1I6VfGzOLu127QZtVPF65tnTT7d36D23fcIn2bLlBq38/Sh/1GiMGoDSyoKOTTJpUPhZcM08qri/cIxNGz6UViw7Qrs3XafMfF2j9yvDo167NUbR+xSmaMWkJPf+clm0FjK0ZSV0OlgYpUmhtQDUTMJRcvnKJXun4tEyzhgWg29takLIbXHjelESR0S8EEkWIiQLJ5azCmlv65526qALhxlJmgHpfa9b+LveRHegE/2fYDBUh21oIZkx0Vq1ZRG061JFW1/KPZ6PSlTJS6YoZqFaDomLi8zSNGNNbWoiMewFaNOtgKoj8J2EGuMcYrAHCGZjAfP/99/qeBqqAY0kshGyMGDFC3It7bzBECAQR4ocgolasWBEd4gEXnG/2t1mZG0x08f/DGIHfe/rpp2VcEhKM+vTpI1edULHyGYWSVeOJdu3SJvng4Ye1yXh8RkkUJUQMa5FKNtv9FsW0ZwqBgXotA4d2DZpRhgaLDJAX2tak8DMnpJUIgaZW+I8RZpoBWTMgbx6tDL8RAwYzea6cean1Cx1lujdArJFd0t2dPEurkaoFLaUQH5h5Z8mcLfqFY77c0n0lKqLIarBXTdhCbSBw0WXZYIVTNgWz/Lav1aP9B3ZS2rQZZKwNrCducXNe0Duq4jOwKNKeq2S6ldIMPBsL9Myu4kVLy60XuLXgnTx1jDp01mKMnnm6la1sSl/cWrz8ebzykzR/zkZ6qlaTgNZmuMdgoUX/0uXNj2nurPVikqQlXVgNimbPjpF5ZgRdM/fiG4iOlR1mzJghrxsERpcuXWS8kK+LCV4YZGxjBYiCBQtKQeS7ygIKDaNwcr9+/eR7JD4FAs8bLEuo8zd+/Hi5cPvPP/8sM9iGDh0qf//FF1+MrkxuBrLIAf7G1q0IxwgOyucY8cMAoTbxnUQrigzx4mv6C4ZPIk1A0Dlh5oasIcTPfNjvDWm6nvrNWPpsXD96p3tLqlmviKzRsmv3FunSQnAtatKYkVEbs2Ng1sEaVq9g1i/EFhir9NspIAkgDH07TAyaNuLuLTHOOYWFpUBhjKUUijNzuErAxQB1duzgp+9ikNIiPhJxYI2alaeNm9dQxgxZaObkZZQ/b0EZcLxr91Zau365FNNw4cz5YTJ9PWMMTZ42ir6ZPYHm/jRNFkbEz48dv9c8b3ZeKqj+/r8B/JlGVpRKDSik76N+TqpUqamxEB8GbsWmm8LLsNwhHg6p6xDPPbqaV1o3w3pufheV9g2KFX1Exin+uew47d58g7avvyytsRvXnJOWYVhoIa47dehFj5QsH51pCRdbMPDcmF0zFkXW1K1bV67XCRCc/sILL8gYIYgSuJbgFitTpozMJkMCEur+wfKGeFkEKQdbQqVq1apyu2bNGjmJ8GfChAm0YMECOdmHdeiTTz6RdQLfeustaWnCMbx/6CFrl3zTpk2lVRCuvNKlS8ultvA3YOlCaQAIMyzWDrEFkWfUsALIEo/vJBEzBzvPbIIAX9kIekaDRCC3FacOB6/hASA2Puj7muhMg6eOoHZPzeoNqG+vMdJyY0V+0X79O0lYwoNVum3euhpt2LhSzgq7dxkU/R0Rq4JlNBBkjU4+f75C9MvcbeIhVTSpCHIVuHcWiZXf3S54aYCMmmdfrCyzlaZ+uUg/ei9ZxETMqowRatOcVciGRVXfpxqVkC7Fvzc4/yLZxK0M05JE7gFGqAsBlhxBG4S4QVFDX5DpdN3Biq7p0mWk9StOR1tA4fZ9wGWdPeQBYAX1YIwa25dGjfuI3ni1J3V9+xP9qMbW7Ruo8fMVZJsf+ekMalC3udiPaVpEJuJn4/vJJU7A4P6T6LkmWkV8kEbc56wuMsAvXSBHiwIjO/L1t5pINzPaxswpywPWYlIln3iOVV2ZeJ7wXHkNlowZMORd0+crWx7Rjk1CwIYMGULvvfeetEjYWa0gsdGxY0caN24cvfTSS9JSYwBrEOJ0YIHxBXX4sC4nBEYwUDoGi6UDLIGFtUF9effdd2n48OE0aNAgGQfsFsQ4tWnTJjrQ2wwIurNntWQZfB7p/PGZRCmKoNCNgDD4cVUi7CGIIIzMwMKeS5f/TKv++I0iIs7TNTG4pbgvJWXMmIWq/u8pqvZ4HcqYIbP+aXNSi0E2exDddGw/yTXZ/IEVoe+AznIfmTLZxIiCzC6jRgnIlTOfrNJrp5PPnEMMutrzGAN46+ysXG8F4jcefKBI9Kw2EIGEoj/w3BxVCHuAyXnE6N6UUwjUF5s7SwjAueQtHHyGjRhu/2UmEBiLYHfUwzEnCaURagt1jNKmES99CxdjlPjDN6Ku03XRMPEqWfxRGjZoarTwQNtBG3JDoHP3BUUmf1n8PdWp1STaMmSAbqV952doybKf5PtyZatQ1Sp1ZJDw6dPHpWUIz8oVfR2RLp37U6fXPpD7BioC2Aysn3ZObe3laOAya9+pEe3crbmXh3wyhSqUqyrLNiBLUW7FC7WtEJMWJkQThBMyCANNMuBmzmuj3iFiisSlsWdeUuDLyUNp4NBuVP3xejTp83tLgaiI6Llz51KTJk1kvAvKozCBgfBBphisM5MmTdKPauC5+OKLL6QrDet9gq+//ppat24t982AFQklZGCpqVWrln5UAyVsYEWCKw5Wd4xxsNog+w0/w9Z3HzG1bdu2jQ6xCAbinSDY8LcxVqJMDgQQijNDmGGt0zfffFO2CViWVq1aZSru4gOJUhSh7obh+0QdBhSmVAGronu9encw0EGhowoELA+BwmBQiwmWBwRR+wZXglIPl6e6tZ+lVi062opXSSU+mjNI/UCEAR0LfTJENHAnZri33lxAMJi7TCpTIkNWcV4mlSLwdB2+G4cowSK5iCEyqFG1PpV8uJyMp4EVzxBAGHCdLr75QDHRfhRjvswIJsBVuH79Go2Z8LG0UPq3R4Mc2fPQ25360nONX45pSRK7+YqoW1gCoTKRMYD78c2uLWjr9nX6EXvgvi2ev+ueQQaWF1hg7BCKfmbCV5/S4OHdZR/gWxfLwMzaaQA3UKlSpeSEEq4hp20zodO5c2caM2aMFEejR4/Wj8YELieUuYFlF2uGqtQARPA0rEywQmE5LV/gjoN7zA5whTVv3lx/5w6siYo6gBBPlSu7W2PzvyZRiiLcPNxEAOUcqIp2IDCLOyk6WSf1T+wQyFXlixQjYrAKNptEWu5fm1bLmTwCnIsULBEdP2MHldnj6aPWy0F4hZlQ9AepzadMrBxegHOBFcAqkPbcqZhroOGR+2PdUmltQKagmwKNgciam0joKk9ACamIu2WkHHHg4G5pUdq5azOdP3+GcuXKR3lyF6BHSlagalXqSPeBP4hhy6ElOzkGoRdHYDFU6OFqNywhA92DATcgRGqYUA6wCOHeQfTBSoe6QSVLlKO5s9bdIxQyZSdKrzbnigb68fgBrb/xis1b18qg8fff/ZSaNIpplTCzSvsCIWRkJiHtPFj8S2IHFiK4zeDGgjvLKwy3HKxMw4YN049qYHksoz6SAfoVjG24Z/4vrDOKv+G7FqgbsFoELEiImXrsscf0o/GTRCmK4C81IvwR/Z8xo09alQWo8wdhdCfwxNc1wVxV/iBWAjEToURFhCD85XQslC3BAGmVBeiPlzFPgVC1XMW2Ra2AvRh6UzBAQ4C7XUfNLlYTA1VOHCS5aK8Vn47oQd/NmyK+5x369JPJlD1rLimA4BqDCxNCyD8mysDoQu/5uXgL0ewkYNxr13QwIOjziHNUNfogGwpuErhUatSooR9lfMHyGCi2OHHiRGrXrp1+1D2wBMEiBFcbXG6+wFUGyw+sSbDkoQI2XGTB2qzXZMmSRZYfwPcuV66cfjR+ovgoJCx8LUOqtRgMkByVUwzQbjNjAqEqiAAG5FCcA5BxEIWtBRFAZl5adU3pCMSW2BVEANczVOB8VC0AuE/pFd1+bslvYdmzCwbNUN9ff/D/eSGIgGpc1XvvDJR1szasCqcaVetR8WJwZRakrFmyy3gps8EFPwv0c6GnHD+jKH9hlbnoFlTrz/2guiACyEQCqL7MBAbXCCEZqD3kJUagNQpE+gPrD9xxKAmAz0EYxZYgAoa127cwcnwlUYoixBMZN9GuKAJIXcVMFvE2XpFLdE6qggigI4NYUHUnqYKOGCtt2OnMUe7HzXIoZrgJtsV3gLjzGtx/lIex0+fAoqRaKsApeYvYG+BUQW6AlYvQK1A8UC8f5QkQF14/I0qItqEa/xYItC1YR73sY3xBIVY853bvq5GWHxuVleMr06dPl9Y0FGL0kpIlS8otrHVxDViuRo0aFX2O8ZlEKYrg9zcalm+NBTugM0GnhfgNWcjQIbAgYHZvp+qtAaw0COL0qtPHucAKZrejRAZWjrzeC6PcBZ0LIgMIIwTsekXqdOIaicFEtZ6MAcQK2kuoxCO+o5d1o3xBe8gSc6WIkCDbkbhGdq+tGTh3r+Kr7CAtPS6tXUabsTNZUgEWVLRhJ1YsQxQ57TcTA7DQhMJigowzpPWjQnZcA7WZkIUWm9apUJEoRREw0gYnT54ss7acgPuPDjePGLxh0YCpXkWgpBCdJbKWMJBhVuxmdg8TfY78wcvzqxAmvgOsDDgXpwILVhBkqXlhDUmXWcueclt80AADI/6em8EFYgaDSXYhQp3eL5wHZudu7pU/sCTgu9kVsnZB2/Z6cPYH1len7iYz4Gr2amkYFfAMBCq86gT0MWh3cHM5cSH7gkw4xA+5uY9Fi2r+WZXKyIz3wPqUEFxUcZlEGWgNoLhRWyEqKkoGiWEVfhyD4kWEv1NwNRGMfRMZamIf743kIsyAYREKhTkf/w/qsiDLSSWwFGQSnS1EnZfJTwjIRZAoSgbYzZ6xSm/3ApwTyjZFKdZHhIDFrB/XyatJEK7R+fCYGWlOwADn4VJhSoQiwB8uWwjqUE4yQ1UU0R8IXnyXUIlU9Cso7aSaEQjRDGsrRK2byZcBxBCWgUD4AUIPAmUOMkx8JtGKIoDsAJRBN4poAUTOI4I+PgNRdkMII5QOMMrDoJPGC/XlQh3bAiA+roqBCOn618TLP3sJwhCWIHTaacQMNjbOyR9cJwhJ1DOStXjEoAyXJIQGXKKIu/BSMPqDsgEY3OyUNMA5wWUaasuQGcGqdDshq/guuP+xgSzmeErshKjHg7jDvQmVGzMQeL6R3SgnIKL9Qvhg8gWLWyhEJiaRxtJIqoVvGSY+kahFEUAaIapw4mFHzYZKlSoliEXt4hJoYdEdtwCddmxbOOIymP3DkgFxhoKDvhY2iB+4PTDb/y+EYzBwzrAaqVrc/EHmHqyCobCamiGXgDkhdjzs9fAd8F3glgqltSs2wbCAhUtRtRiZTb6gn0R9N9TFwdpYDJOQSPSiiGEY56BOFQQdxIZV7S6IYYgHCLzYFkO+wL0Mi5Hbiuf4DhCsyM7zMk4sLoDFRRs0aCAFUf369WXtHVjRMXnEeyyRgwKObCliEhosihiG8QSIDbht4dIxehVYTmDhQiZWKF2RToA7DfFRqjF4BnD5IkYHbr//0o0ZShBfWb16dekiC0Tjxo3phx9+0N8xTMKBRRHDMIkaCDkEL0McIc7Md603WINgBcK6YHglNIuQGcjKnTdvnlxva9myZXIlACwEiqrJWJE9LtbLYRi3sChiGIZhLMFQkRDq0DCMGf+hZ59hGIaJL7AgYhIDLIoYhmEYhmEELIoYhmEYhmEELIoYhmEYhmEELIoYhmEYhmEELIoYhmEYhmEELIoYhmEYhmEELIoYhmEYhmEELIoYhmEYhmEELIoYhmEYhmEELIoYhmEYhmEELIoYhmEYhmEELIoYhmEYhmEELIoYhmEYhmEELIoYhmEYhmEELIoYhmEYhmEELIoYhmEYhmEELIoYhmEYhmEELIoYhmEYhmEELIoYhmEYhmEELIoYhmEYhmEELIoYhmEYhmEELIoYhmEYhmEELIoYhmEYhmGI6P9Y2+V/4TFbhQAAAABJRU5ErkJggg==;" parent="Ndzt5HTPb4c412SwF74z-19" vertex="1">
          <mxGeometry x="14" y="181" width="287.17" height="43" as="geometry" />
        </mxCell>
        <mxCell id="Ndzt5HTPb4c412SwF74z-24" value="Tree Map / Tree set" style="swimlane;whiteSpace=wrap;html=1;fillColor=#b1ddf0;strokeColor=default;swimlaneFillColor=#FFFFFF;gradientColor=none;" parent="1" vertex="1">
          <mxGeometry x="-145.5" y="-286" width="332" height="200" as="geometry" />
        </mxCell>
        <mxCell id="Ndzt5HTPb4c412SwF74z-25" value="&lt;ul&gt;&lt;li&gt;Data is sorted in increasing order f key&lt;/li&gt;&lt;li&gt;Insertion and deletion takes O(Log N) time&lt;/li&gt;&lt;li&gt;It implements Balanced Binary Search tree&lt;/li&gt;&lt;/ul&gt;" style="text;html=1;align=left;verticalAlign=middle;resizable=0;points=[];autosize=1;strokeColor=none;fillColor=none;" parent="Ndzt5HTPb4c412SwF74z-24" vertex="1">
          <mxGeometry x="8" y="31" width="285" height="79" as="geometry" />
        </mxCell>
        <mxCell id="Ndzt5HTPb4c412SwF74z-26" value="Tree map also give Floor and ceil&lt;br&gt;&lt;br&gt;&lt;b&gt;&lt;span style=&quot;white-space: pre;&quot;&gt;&#x9;&lt;/span&gt;Floor&lt;/b&gt;(4) = 3&lt;br&gt;&lt;b&gt;&lt;span style=&quot;white-space: pre;&quot;&gt;&#x9;&lt;/span&gt;&lt;br&gt;&lt;span style=&quot;white-space: pre;&quot;&gt;&#x9;&lt;/span&gt;Ceil&lt;/b&gt;(4) = 5" style="text;html=1;align=left;verticalAlign=middle;resizable=0;points=[];autosize=1;strokeColor=none;fillColor=none;" parent="Ndzt5HTPb4c412SwF74z-24" vertex="1">
          <mxGeometry x="29" y="108" width="195" height="84" as="geometry" />
        </mxCell>
        <mxCell id="onO6WxirUHfRUyPi9q4v-9" style="edgeStyle=orthogonalEdgeStyle;rounded=0;orthogonalLoop=1;jettySize=auto;html=1;" edge="1" parent="1" source="onO6WxirUHfRUyPi9q4v-1" target="onO6WxirUHfRUyPi9q4v-8">
          <mxGeometry relative="1" as="geometry" />
        </mxCell>
        <mxCell id="onO6WxirUHfRUyPi9q4v-1" value="Tree Map / Tree Set" style="swimlane;whiteSpace=wrap;html=1;fillColor=#b1ddf0;strokeColor=default;swimlaneFillColor=#FFFFFF;gradientColor=none;" vertex="1" parent="1">
          <mxGeometry x="215" y="285" width="243" height="111" as="geometry" />
        </mxCell>
        <mxCell id="onO6WxirUHfRUyPi9q4v-2" value="Date is sorted in increasing order of &lt;b&gt;key&lt;/b&gt;&lt;br&gt;&lt;br&gt;Each insertion and deletion takes&lt;br&gt;O(Log N) &lt;b&gt;[Balanced Binary search]&lt;/b&gt;" style="text;html=1;align=left;verticalAlign=middle;resizable=0;points=[];autosize=1;strokeColor=none;fillColor=none;" vertex="1" parent="onO6WxirUHfRUyPi9q4v-1">
          <mxGeometry x="12" y="37" width="231" height="70" as="geometry" />
        </mxCell>
        <mxCell id="onO6WxirUHfRUyPi9q4v-8" value="Given [1,3,7,10]&lt;br&gt;&lt;br&gt;Then, &lt;br&gt;&lt;span style=&quot;white-space: pre;&quot;&gt;&#x9;&lt;/span&gt;Floor(4) = 3 {Going down}&lt;br&gt;&lt;span style=&quot;white-space: pre;&quot;&gt;&#x9;&lt;/span&gt;Ceil(4)&amp;nbsp; &amp;nbsp;= 7 {Going Up}" style="text;html=1;align=left;verticalAlign=middle;resizable=0;points=[];autosize=1;strokeColor=#666666;fillColor=none;fontColor=#333333;" vertex="1" parent="1">
          <mxGeometry x="500" y="298.5" width="182" height="84" as="geometry" />
        </mxCell>
      </root>
    </mxGraphModel>
  </diagram>
</mxfile>
